<svg width="59" height="42" viewBox="0 0 59 42" fill="none" xmlns="http://www.w3.org/2000/svg">

    <g id='logoSvg'>

        <path d="M2.41669 22L14.0233 40L29.5 27L2.41669 22Z" stroke="#00C1EC" stroke-width="4" stroke-linecap="round" stroke-linejoin="round"/>
        <path d="M56.5833 22L44.9768 40L29.5 27L56.5833 22Z" stroke="#00C1EC" stroke-width="4" stroke-linecap="round" stroke-linejoin="round"/>
        <path d="M14.6042 40H44.3959L29.5 27L14.6042 40Z" stroke="#00C1EC" stroke-width="4" stroke-linecap="round" stroke-linejoin="round"/>
        <path d="M13.25 24L29.5 2L45.75 24" stroke="#00C1EC" stroke-width="4" stroke-linejoin="round"/>

    </g>

    <g id='react'>

        <path d="M8.00007 9.42495C8.78708 9.42495 9.42507 8.78696 9.42507 7.99995C9.42507 7.21295 8.78708 6.57495 8.00007 6.57495C7.21307 6.57495 6.57507 7.21295 6.57507 7.99995C6.57507 8.78696 7.21307 9.42495 8.00007 9.42495Z" fill="#61DAFB"/>
        <path d="M13.4125 5.64995C13.1375 5.54995 12.85 5.44995 12.55 5.36245C12.625 5.06245 12.6875 4.76245 12.7375 4.47495C13 2.82495 12.7125 1.66245 11.9125 1.21245C11.675 1.07495 11.4125 1.01245 11.1125 1.01245C10.2375 1.01245 9.12505 1.66245 8.00005 2.74995C6.87505 1.66245 5.76255 1.01245 4.88755 1.01245C4.58755 1.01245 4.32505 1.07495 4.08755 1.21245C3.28755 1.67495 3.00005 2.83745 3.26255 4.47495C3.31255 4.76245 3.37505 5.06245 3.45005 5.36245C3.15005 5.44995 2.86255 5.53745 2.58755 5.64995C1.02505 6.24995 0.175049 7.07495 0.175049 7.99995C0.175049 8.92495 1.03755 9.74995 2.58755 10.35C2.86255 10.45 3.15005 10.55 3.45005 10.6375C3.37505 10.9375 3.31255 11.2375 3.26255 11.525C3.00005 13.175 3.28755 14.3375 4.08755 14.7875C4.32505 14.925 4.58755 14.9875 4.88755 14.9875C5.77505 14.9875 6.88755 14.3375 8.00005 13.25C9.12505 14.3375 10.2375 14.9875 11.1125 14.9875C11.4125 14.9875 11.675 14.925 11.9125 14.7875C12.7125 14.325 13 13.1625 12.7375 11.525C12.6875 11.2375 12.625 10.9375 12.55 10.6375C12.85 10.55 13.1375 10.4625 13.4125 10.35C14.975 9.74995 15.825 8.92495 15.825 7.99995C15.825 7.07495 14.975 6.24995 13.4125 5.64995ZM11.5625 1.83745C12.075 2.13745 12.25 3.06245 12.0375 4.37495C12 4.63745 11.9375 4.91245 11.8625 5.19995C11.2125 5.04995 10.525 4.94995 9.80005 4.88745C9.37505 4.28745 8.93755 3.74995 8.50005 3.26245C9.42505 2.34995 10.3625 1.72495 11.125 1.72495C11.2875 1.72495 11.4375 1.76245 11.5625 1.83745ZM10.1625 9.24995C9.93755 9.64995 9.67505 10.05 9.40005 10.45C8.93755 10.4875 8.47505 10.5 8.00005 10.5C7.51255 10.5 7.05005 10.4875 6.60005 10.45C6.32505 10.05 6.07505 9.64995 5.85005 9.24995C5.61255 8.83745 5.38755 8.41245 5.18755 7.99995C5.38755 7.58745 5.61255 7.16245 5.85005 6.74995C6.07505 6.34995 6.33755 5.94995 6.61255 5.54995C7.07505 5.51245 7.53755 5.49995 8.01255 5.49995C8.50005 5.49995 8.96255 5.51245 9.41255 5.54995C9.68755 5.94995 9.93755 6.34995 10.1625 6.74995C10.4 7.16245 10.625 7.58745 10.825 7.99995C10.6125 8.41245 10.4 8.82495 10.1625 9.24995ZM11.2 8.83745C11.3875 9.27495 11.5375 9.69995 11.675 10.125C11.25 10.225 10.8 10.3 10.325 10.3625C10.475 10.125 10.6375 9.87495 10.775 9.61245C10.925 9.34995 11.0625 9.08745 11.2 8.83745ZM8.00005 12.225C7.70005 11.9 7.41255 11.55 7.13755 11.1875C7.42505 11.2 7.71255 11.2125 8.00005 11.2125C8.28755 11.2125 8.57505 11.2 8.86255 11.1875C8.58755 11.55 8.30005 11.9 8.00005 12.225ZM5.67505 10.35C5.20005 10.2875 4.75005 10.2125 4.32505 10.1125C4.46255 9.69995 4.61255 9.26245 4.80005 8.82495C4.93755 9.07495 5.07505 9.33745 5.22505 9.58745C5.37505 9.86245 5.52505 10.1 5.67505 10.35ZM4.80005 7.16245C4.61255 6.72495 4.46255 6.29995 4.32505 5.87495C4.75005 5.77495 5.20005 5.69995 5.67505 5.63745C5.52505 5.87495 5.36255 6.12495 5.22505 6.38745C5.07505 6.64995 4.93755 6.91245 4.80005 7.16245ZM8.00005 3.77495C8.30005 4.09995 8.58755 4.44995 8.86255 4.81245C8.57505 4.79995 8.28755 4.78745 8.00005 4.78745C7.71255 4.78745 7.42505 4.79995 7.13755 4.81245C7.41255 4.44995 7.70005 4.09995 8.00005 3.77495ZM10.775 6.39995L10.325 5.64995C10.8 5.71245 11.25 5.78745 11.675 5.88745C11.5375 6.29995 11.3875 6.73745 11.2 7.17495C11.0625 6.91245 10.925 6.64995 10.775 6.39995ZM3.96255 4.37495C3.75005 3.06245 3.92505 2.13745 4.43755 1.83745C4.56255 1.76245 4.71255 1.72495 4.87505 1.72495C5.62505 1.72495 6.56255 2.33745 7.50005 3.26245C7.06255 3.73745 6.62505 4.28745 6.20005 4.88745C5.47505 4.94995 4.78755 5.06245 4.13755 5.19995C4.06255 4.91245 4.01255 4.63745 3.96255 4.37495ZM0.875049 7.99995C0.875049 7.41245 1.58755 6.78745 2.83755 6.32495C3.08755 6.22495 3.36255 6.13745 3.63755 6.06245C3.83755 6.68745 4.08755 7.34995 4.38755 8.01245C4.08755 8.67495 3.82505 9.32495 3.63755 9.94995C1.91255 9.44995 0.875049 8.69995 0.875049 7.99995ZM4.43755 14.1625C3.92505 13.8625 3.75005 12.9375 3.96255 11.625C4.00005 11.3625 4.06255 11.0875 4.13755 10.8C4.78755 10.95 5.47505 11.05 6.20005 11.1125C6.62505 11.7125 7.06255 12.25 7.50005 12.7375C6.57505 13.65 5.63755 14.275 4.87505 14.275C4.71255 14.275 4.56255 14.2375 4.43755 14.1625ZM12.0375 11.625C12.25 12.9375 12.075 13.8625 11.5625 14.1625C11.4375 14.2375 11.2875 14.275 11.125 14.275C10.375 14.275 9.43755 13.6625 8.50005 12.7375C8.93755 12.2625 9.37505 11.7125 9.80005 11.1125C10.525 11.05 11.2125 10.9375 11.8625 10.8C11.9375 11.0875 11.9875 11.3625 12.0375 11.625ZM13.1625 9.67495C12.9125 9.77495 12.6375 9.86245 12.3625 9.93745C12.1625 9.31245 11.9125 8.64995 11.6125 7.98745C11.9125 7.32495 12.175 6.67495 12.3625 6.04995C14.0875 6.54995 15.125 7.29995 15.125 7.99995C15.125 8.58745 14.4 9.21245 13.1625 9.67495Z" fill="#61DAFB"/>

    </g>


    <g id='docker'>
	
        <path d="M250.716 70.497C244.951 66.497 231.74 64.997 221.412 66.997C220.212 56.997 214.687 48.248 205.079 40.498L199.555 36.498L195.711 42.248C190.908 49.748 188.506 60.248 189.226 70.248C189.466 73.747 190.667 79.997 194.27 85.497C190.908 87.497 183.942 89.997 174.815 89.997H1.15497L0.674972 91.997C-1.00703 101.996 -1.00703 133.245 18.689 157.244C33.581 175.493 55.679 184.743 84.742 184.743C147.672 184.743 194.27 154.493 216.128 99.746C224.775 99.996 243.27 99.746 252.638 80.996C252.878 80.496 253.358 79.496 255.039 75.747L256 73.747L250.716 70.497ZM139.986 0H113.566V24.999H139.986V0ZM139.986 29.999H113.566V54.998H139.986V29.999ZM108.761 29.999H82.341V54.998H108.761V29.999ZM77.536 29.999H51.115V54.998H77.536V29.999ZM46.311 59.998H19.89V84.997H46.31L46.311 59.998ZM77.536 59.998H51.115V84.997H77.536V59.998ZM108.761 59.998H82.341V84.997H108.761V59.998ZM139.987 59.998H113.565V84.997H139.987V59.998ZM171.212 59.998H144.79V84.997H171.212V59.998Z" fill="#2396ED"/>
		
	</g>

    <g id='express'>
    
        <path d="M5.06624 9.72751V6.34251H5.24999V6.87501C5.27157 6.85132 5.29161 6.82627 5.30999 6.80001C5.38507 6.64415 5.50303 6.51293 5.65003 6.42171C5.79703 6.3305 5.96699 6.28308 6.13999 6.28501C6.55874 6.27251 6.89874 6.42751 7.09874 6.80001C7.22599 7.03142 7.29602 7.28991 7.30298 7.55391C7.30994 7.8179 7.25362 8.07973 7.13874 8.31751C6.95249 8.73501 6.49249 8.94251 5.99999 8.86626C5.84672 8.85321 5.69917 8.80199 5.57078 8.71727C5.4424 8.63255 5.33727 8.51704 5.26499 8.38126V9.72751H5.06624ZM5.24999 7.54001C5.26624 7.70501 5.27249 7.82251 5.29124 7.93751C5.36374 8.39001 5.63124 8.65877 6.05124 8.70752C6.24844 8.73993 6.45079 8.70296 6.6238 8.60289C6.7968 8.50283 6.92975 8.34587 6.99999 8.15876C7.0807 7.96631 7.11954 7.75889 7.11394 7.55027C7.10833 7.34165 7.05841 7.13661 6.96749 6.94876C6.89251 6.78106 6.76501 6.64231 6.60422 6.55347C6.44344 6.46462 6.25812 6.4305 6.07624 6.45626C5.90547 6.46864 5.7428 6.53391 5.61085 6.64301C5.4789 6.75211 5.38422 6.89962 5.33999 7.06501C5.30072 7.22145 5.27067 7.38006 5.24999 7.54001ZM11.0512 8.00001C11.0234 8.23834 10.9099 8.45845 10.732 8.6194C10.554 8.78035 10.3237 8.87118 10.0837 8.87501C9.31374 8.91376 8.95249 8.40251 8.89499 7.81251C8.85494 7.49211 8.90697 7.16693 9.04499 6.87501C9.14101 6.67475 9.29827 6.51024 9.49401 6.40529C9.68974 6.30035 9.91379 6.26041 10.1337 6.29126C10.3428 6.30899 10.5411 6.39204 10.7003 6.52866C10.8596 6.66528 10.9719 6.84855 11.0212 7.05251C11.0604 7.23827 11.0892 7.42606 11.1075 7.61501H9.08374C9.04624 8.15001 9.33374 8.58001 9.74124 8.68376C10.2487 8.80876 10.6825 8.58876 10.84 8.10626C10.875 7.98251 10.9387 7.96501 11.0512 8.00001ZM9.08374 7.44376H10.8925C10.8812 6.87376 10.5262 6.46126 10.045 6.45501C9.49999 6.44626 9.10749 6.84376 9.08374 7.44376ZM11.4237 8.01251H11.6012C11.6078 8.14312 11.6502 8.2694 11.7239 8.37745C11.7975 8.48551 11.8996 8.57117 12.0187 8.62501C12.1684 8.69236 12.3313 8.72508 12.4953 8.72076C12.6594 8.71643 12.8203 8.67516 12.9662 8.60001C13.0457 8.56417 13.1123 8.50481 13.157 8.42993C13.2017 8.35505 13.2224 8.26826 13.2162 8.18126C13.2208 8.09736 13.1979 8.01426 13.151 7.94456C13.1041 7.87486 13.0357 7.82235 12.9562 7.79501C12.7612 7.72251 12.5537 7.68251 12.355 7.61876C12.1482 7.55998 11.9459 7.48603 11.75 7.39751C11.43 7.24126 11.41 6.63251 11.7725 6.44001C11.9581 6.33527 12.167 6.27868 12.3801 6.2754C12.5932 6.27213 12.8037 6.32227 12.9925 6.42126C13.1068 6.48446 13.1992 6.581 13.2572 6.69802C13.3153 6.81505 13.3363 6.94699 13.3175 7.07626H13.165C13.165 7.06876 13.1512 7.06251 13.1512 7.05501C13.1325 6.56876 12.725 6.41876 12.2875 6.46126C12.1569 6.47745 12.0301 6.51592 11.9125 6.57501C11.8419 6.60731 11.783 6.66073 11.7441 6.7279C11.7051 6.79507 11.688 6.87268 11.695 6.95001C11.6952 7.02738 11.7193 7.10279 11.7641 7.1659C11.8089 7.22901 11.872 7.27673 11.945 7.30251C12.1375 7.37251 12.3387 7.41751 12.5362 7.47251C12.695 7.51626 12.86 7.54501 13.0137 7.59751C13.1223 7.63309 13.2174 7.70078 13.2866 7.79163C13.3558 7.88247 13.3958 7.9922 13.4012 8.10626C13.4198 8.23125 13.3985 8.3589 13.3404 8.47109C13.2823 8.58328 13.1903 8.67432 13.0775 8.73126C12.66 8.96751 11.9725 8.90501 11.6662 8.60626C11.5886 8.5282 11.5272 8.43555 11.4856 8.33364C11.444 8.23173 11.423 8.12259 11.4237 8.01251ZM15.6512 7.07626H15.485C15.485 7.05376 15.4762 7.03376 15.4737 7.01501C15.471 6.8904 15.4256 6.77049 15.3451 6.67537C15.2645 6.58025 15.1537 6.5157 15.0312 6.49251C14.8001 6.42621 14.5536 6.43808 14.33 6.52626C14.2416 6.55161 14.1638 6.60487 14.1081 6.67809C14.0525 6.7513 14.022 6.84055 14.0212 6.93251C14.0181 7.02283 14.0463 7.11145 14.1009 7.18341C14.1556 7.25537 14.2334 7.30627 14.3212 7.32751C14.5712 7.40501 14.8275 7.45251 15.0812 7.52251C15.1635 7.54225 15.2444 7.56688 15.3237 7.59626C15.4421 7.63863 15.545 7.71572 15.6189 7.81748C15.6928 7.91923 15.7343 8.04091 15.7379 8.16662C15.7416 8.29232 15.7072 8.4162 15.6393 8.52207C15.5715 8.62793 15.4732 8.71086 15.3575 8.76001C15.1811 8.84012 14.9899 8.88249 14.7962 8.88443C14.6024 8.88637 14.4105 8.84782 14.2325 8.77126C14.0861 8.70814 13.9626 8.60171 13.8786 8.46627C13.7946 8.33084 13.7541 8.17292 13.7625 8.01376H13.925C13.955 8.1588 14.02 8.29432 14.1142 8.4086C14.2085 8.52287 14.3292 8.61245 14.4658 8.66957C14.6025 8.7267 14.751 8.74965 14.8985 8.73644C15.0461 8.72323 15.1881 8.67426 15.3125 8.59376C15.3882 8.55441 15.4511 8.49417 15.4936 8.42017C15.5362 8.34617 15.5566 8.26152 15.5525 8.17626C15.5563 8.09232 15.5325 8.00943 15.4849 7.94018C15.4373 7.87092 15.3685 7.81908 15.2887 7.79251C15.0937 7.72001 14.8862 7.68126 14.6875 7.61751C14.4795 7.55955 14.276 7.48643 14.0787 7.39876C13.7662 7.24501 13.7412 6.64126 14.0975 6.44876C14.2854 6.33963 14.4984 6.28101 14.7157 6.2786C14.933 6.27619 15.1472 6.33007 15.3375 6.43501C15.4463 6.49998 15.5339 6.59518 15.5896 6.70903C15.6453 6.82288 15.6667 6.95047 15.6512 7.07626ZM4.76249 8.81376C4.69704 8.83855 4.62478 8.8385 4.55937 8.81362C4.49396 8.78875 4.43993 8.74077 4.40749 8.67876C4.20374 8.37376 3.97874 8.08251 3.76249 7.78501L3.66874 7.66001C3.41124 8.00501 3.15374 8.33626 2.91874 8.68001C2.88812 8.73928 2.837 8.78539 2.77491 8.80976C2.71282 8.83414 2.64399 8.83512 2.58124 8.81251L3.54749 7.51626L2.64874 6.34501C2.71343 6.32165 2.7842 6.32133 2.84911 6.34411C2.91401 6.36688 2.96907 6.41135 3.00499 6.47001C3.21374 6.77501 3.44499 7.06626 3.67499 7.37501C3.90624 7.06876 4.13499 6.77626 4.34874 6.47376C4.37952 6.41547 4.43066 6.37052 4.49243 6.34747C4.5542 6.32442 4.62228 6.32488 4.68374 6.34876L4.33499 6.81126C4.17874 7.01751 4.02499 7.22501 3.86249 7.42626C3.84939 7.43799 3.83892 7.45234 3.83175 7.46839C3.82458 7.48444 3.82087 7.50181 3.82087 7.51939C3.82087 7.53697 3.82458 7.55434 3.83175 7.57039C3.83892 7.58644 3.84939 7.60079 3.86249 7.61251C4.16124 8.00876 4.45749 8.40626 4.76249 8.81376ZM8.86499 6.33251V6.50751C8.73856 6.49922 8.6118 6.51753 8.49289 6.56126C8.37397 6.60499 8.26555 6.67317 8.17462 6.76139C8.08369 6.84961 8.01226 6.95592 7.96496 7.07346C7.91765 7.191 7.89552 7.31715 7.89999 7.44376V8.81876H7.72124V6.34251H7.89623V6.85001C8.11248 6.48001 8.44624 6.34251 8.86499 6.33251ZM0.266235 7.50001C0.292485 7.37501 0.308735 7.23876 0.344985 7.11126C0.561235 6.34251 1.44249 6.02251 2.04874 6.49876C2.40374 6.77751 2.49249 7.17251 2.47499 7.61751H0.474985C0.442485 8.41251 1.01624 8.89251 1.74999 8.64751C1.86901 8.60494 1.97556 8.53339 2.06001 8.43934C2.14447 8.34528 2.20417 8.23167 2.23374 8.10876C2.27249 7.98376 2.33499 7.96251 2.45374 7.99876C2.43417 8.15094 2.38037 8.2967 2.29637 8.42509C2.21236 8.55348 2.10034 8.66115 1.96874 8.74001C1.75129 8.85893 1.5018 8.90603 1.25597 8.8746C1.01013 8.84317 0.780523 8.73481 0.599985 8.56501C0.42138 8.3642 0.313386 8.11045 0.292485 7.84251C0.292485 7.80001 0.276235 7.75751 0.267485 7.71751C0.266652 7.64335 0.266235 7.57085 0.266235 7.50001ZM0.477485 7.44626H2.28624C2.27499 6.87001 1.91124 6.46126 1.42624 6.45751C0.886235 6.45001 0.499985 6.85001 0.476235 7.44376L0.477485 7.44626Z" fill="black"/>

    </g>

    <g id='git'>

        <path d="M15.5921 7.29729L8.70263 0.408036C8.30613 0.0112861 7.66263 0.0112861 7.2655 0.408036L5.835 1.83879L7.64975 3.65354C8.07163 3.51116 8.55513 3.60666 8.89125 3.94279C9.22913 4.28104 9.32388 4.76866 9.178 5.19191L10.927 6.94104C11.3501 6.79516 11.8385 6.88941 12.1763 7.22791C12.6488 7.70004 12.6488 8.46541 12.1763 8.93779C12.064 9.05013 11.9306 9.13924 11.7839 9.20004C11.6372 9.26084 11.4799 9.29214 11.3211 9.29214C11.1622 9.29214 11.005 9.26084 10.8582 9.20004C10.7115 9.13924 10.5782 9.05013 10.4659 8.93779C10.2972 8.76895 10.1822 8.55402 10.1354 8.32001C10.0886 8.08601 10.112 7.84339 10.2028 7.62266L8.57175 5.99166L8.5715 10.2843C8.68985 10.3425 8.79789 10.4197 8.89138 10.5128C9.36363 10.9849 9.36363 11.75 8.89138 12.2232C8.419 12.6953 7.65338 12.6953 7.1815 12.2232C6.70925 11.7502 6.70925 10.985 7.1815 10.5128C7.29475 10.3996 7.4293 10.31 7.57738 10.249V5.91666C7.42913 5.85601 7.29453 5.76628 7.1815 5.65279C6.82375 5.29529 6.73763 4.77029 6.92113 4.33079L5.132 2.54166L0.408002 7.26541C0.217416 7.45606 0.110352 7.71459 0.110352 7.98416C0.110352 8.25373 0.217416 8.51227 0.408002 8.70291L7.29763 15.5922C7.69438 15.9889 8.33763 15.9889 8.735 15.5922L15.5923 8.73491C15.7828 8.54421 15.8898 8.28565 15.8898 8.01607C15.8898 7.74649 15.7827 7.48795 15.5921 7.29729Z" fill="#F34F29"/>
    </g>

    <g id='javascript'>
    
        <path d="M0 0H16V16H0V0Z" fill="#F7DF1E"/>
        <path d="M4.20697 13.3707L5.43135 12.6297C5.6676 13.0485 5.88247 13.4029 6.39791 13.4029C6.89197 13.4029 7.20353 13.2096 7.20353 12.4579V7.34552H8.7071V12.4791C8.7071 14.0365 7.79422 14.7453 6.46235 14.7453C5.25953 14.7453 4.56135 14.1224 4.20691 13.3706M9.52378 13.2096L10.748 12.5008C11.0703 13.0271 11.4892 13.4137 12.2302 13.4137C12.8533 13.4137 13.2505 13.1022 13.2505 12.6726C13.2505 12.1571 12.8424 11.9745 12.155 11.6738L11.7792 11.5126C10.6944 11.0509 9.97485 10.4709 9.97485 9.24652C9.97485 8.11877 10.834 7.25952 12.1766 7.25952C13.1325 7.25952 13.8198 7.59252 14.3138 8.46246L13.1431 9.21433C12.8853 8.75252 12.6062 8.56996 12.1765 8.56996C11.7362 8.56996 11.4569 8.84921 11.4569 9.21433C11.4569 9.6654 11.7362 9.84808 12.3805 10.1273L12.7564 10.2884C14.0345 10.8362 14.7541 11.3946 14.7541 12.6511C14.7541 14.0045 13.6908 14.7455 12.2624 14.7455C10.8662 14.7455 9.96403 14.0796 9.52372 13.2096" fill="black"/>

    </g>

    <g id='jest'>
    
        <path d="M239.553 138.96C239.553 124.452 227.791 112.69 213.283 112.69C212.35 112.691 211.429 112.739 210.521 112.836L246.603 6.41602H93.267L129.299 112.743C128.767 112.709 128.235 112.692 127.702 112.691C113.194 112.691 101.432 124.451 101.432 138.961C101.432 150.688 109.118 160.617 119.725 163.995C114.123 173.699 107.073 182.44 99.069 189.992C88.185 200.259 75.729 208.045 62.257 212.842C46.217 204.602 38.643 186.277 45.477 170.21C46.249 168.395 47.037 166.556 47.79 164.725C59.41 162.013 68.07 151.596 68.07 139.149C68.07 124.64 56.308 112.879 41.799 112.879C27.29 112.879 15.529 124.64 15.529 139.149C15.529 148.046 19.955 155.905 26.722 160.657C20.22 175.461 10.662 190.955 7.684 208.912C4.115 230.432 7.672 253.276 26.285 266.177C69.633 296.221 116.687 247.552 166.299 235.317C184.279 230.884 204.016 231.598 219.857 222.424C231.753 215.534 239.596 204.115 241.821 191.296C244.021 178.632 240.815 166.023 233.443 155.799C237.398 151.08 239.561 145.117 239.553 138.96Z" fill="#99425B"/>
        <path d="M235.5 190.198C233.568 201.328 226.694 211.049 216.642 216.872C207.271 222.299 196.042 223.919 184.152 225.633C177.783 226.551 171.197 227.502 164.763 229.088C147.751 233.283 131.273 241.468 115.339 249.383C83.449 265.223 55.909 278.901 29.941 260.903C10.919 247.72 11.797 223.328 14.013 209.962C16.067 197.578 21.62 186.173 26.989 175.144C27.9037 173.27 28.811 171.392 29.711 169.51C32.4176 170.591 35.2574 171.304 38.154 171.628C32.688 189.667 41.284 209.281 59.325 218.549L61.795 219.818L64.409 218.887C78.672 213.807 91.815 205.657 103.472 194.658C111.007 187.549 117.486 179.684 122.811 171.28C124.43 171.523 126.065 171.646 127.702 171.647C144.261 171.647 157.973 159.268 160.095 143.28C166.873 143.032 174.072 143.03 180.889 143.278C183.009 159.268 196.723 171.648 213.282 171.648C220.206 171.648 226.628 169.478 231.919 165.792C235.592 173.311 236.963 181.771 235.5 190.198ZM41.8 119.295C52.748 119.295 61.654 128.202 61.654 139.15C61.657 142.939 60.5686 146.65 58.519 149.837C55.219 154.984 49.609 158.512 43.164 158.952C42.713 158.982 42.258 159.004 41.8 159.004C39.36 159.004 37.023 158.559 34.862 157.751C30.51 156.114 26.8655 153.01 24.557 148.974C22.8419 145.984 21.9412 142.597 21.945 139.15C21.945 128.202 30.852 119.295 41.8 119.295ZM107.849 138.961C107.849 129.014 115.202 120.755 124.756 119.327C125.719 119.181 126.701 119.108 127.703 119.107C134.068 119.107 139.735 122.122 143.369 126.794C144.278 127.959 145.056 129.222 145.687 130.559C146.922 133.188 147.561 136.057 147.557 138.961C147.557 140.548 147.365 142.091 147.012 143.571C145.077 151.671 138.17 157.863 129.706 158.715C129.048 158.782 128.38 158.815 127.703 158.815C123.884 158.818 120.146 157.713 116.943 155.634C111.477 152.093 107.849 145.944 107.849 138.961ZM190.714 115.351C186.393 119.474 183.283 124.702 181.723 130.468C174.24 130.192 166.748 130.192 159.265 130.468C157.585 124.236 154.103 118.738 149.418 114.562L169.963 73.02L190.714 115.351ZM102.216 12.834H237.653L205.664 107.179C204.288 107.509 202.935 107.928 201.613 108.434L170.013 43.971L138.323 108.049C136.942 107.575 135.53 107.194 134.097 106.91L102.216 12.834ZM233.136 138.962C233.136 140.952 232.839 142.874 232.292 144.689C230.994 148.962 228.299 152.676 224.639 155.234C221.312 157.569 217.346 158.82 213.282 158.816C204.115 158.816 196.382 152.569 194.108 144.109C193.656 142.431 193.428 140.7 193.428 138.962C193.428 136.248 193.976 133.66 194.966 131.302C195.478 130.096 196.107 128.943 196.844 127.86C200.417 122.586 206.446 119.108 213.282 119.108C213.909 119.109 214.528 119.139 215.14 119.198C225.22 120.137 233.136 128.64 233.136 138.962ZM245.97 138.962C245.97 123.004 234.472 109.689 219.328 106.845L255.553 0H84.318L120.6 107.061C105.982 110.314 95.017 123.377 95.017 138.961C95.017 150.663 101.201 160.941 110.469 166.717C106.011 173.359 100.725 179.609 94.667 185.325C85.059 194.388 74.356 201.262 62.817 205.785C51.194 198.484 46.281 184.715 51.383 172.721L51.783 171.781L52.533 170.017C65.299 165.564 74.486 153.414 74.486 139.15C74.486 121.126 59.823 106.463 41.8 106.463C23.776 106.463 9.11299 121.126 9.11299 139.15C9.11299 148.247 12.853 156.485 18.871 162.417C17.7486 164.795 16.6092 167.165 15.453 169.527C9.94999 180.828 3.71399 193.637 1.35499 207.862C-3.32901 236.112 4.22699 258.695 22.632 271.45C33.8 279.19 45.142 282.234 56.555 282.234C78.045 282.234 99.785 271.437 121.048 260.875C136.361 253.27 152.196 245.405 167.837 241.547C173.657 240.112 179.645 239.248 185.985 238.334C198.558 236.52 211.558 234.645 223.074 227.976C236.423 220.244 245.56 207.274 248.144 192.394C250.362 179.619 247.693 166.824 241.183 155.972C244.319 150.853 245.976 144.965 245.97 138.961" fill="white"/>

    </g>

    <g id='mongo db'>
    
        <path d="M8.31 15L7.9345 14.8755C7.9345 14.8755 7.9845 12.9755 7.297 12.842C6.847 12.318 7.3635 -9.52849 9.0085 12.7675C8.696 12.9253 8.45702 13.1984 8.342 13.529C8.27969 14.0169 8.26896 14.5099 8.31 15Z" fill="url(#paint0_linear_73102_421)"/>
        <path d="M8.513 13.1645C9.51293 12.412 10.2787 11.3911 10.7213 10.2205C11.1638 9.04997 11.265 7.77781 11.013 6.552C10.278 3.3095 8.5375 2.2435 8.35 1.8365C8.18873 1.58278 8.05067 1.31502 7.9375 1.0365L8.076 10.071C8.076 10.071 7.789 12.832 8.513 13.1645Z" fill="url(#paint1_linear_73102_421)"/>
        <path d="M7.74355 13.2845C7.74355 13.2845 4.68305 11.2 4.86005 7.5125C4.87656 6.40082 5.13146 5.30563 5.60751 4.30091C6.08356 3.29618 6.76969 2.40532 7.61955 1.6885C7.71873 1.604 7.79753 1.4982 7.85009 1.37898C7.90264 1.25976 7.92758 1.13021 7.92305 1C8.11355 1.41 8.08255 7.1215 8.10255 7.7895C8.18005 10.388 7.95805 12.794 7.74355 13.2845Z" fill="url(#paint2_linear_73102_421)"/>
        <defs>
        <linearGradient id="paint0_linear_73102_421" x1="5.78582" y1="8.12617" x2="10.1017" y2="9.59073" gradientUnits="userSpaceOnUse">
        <stop offset="0.231" stop-color="#999875"/>
        <stop offset="0.563" stop-color="#9B9977"/>
        <stop offset="0.683" stop-color="#A09F7E"/>
        <stop offset="0.768" stop-color="#A9A889"/>
        <stop offset="0.837" stop-color="#B7B69A"/>
        <stop offset="0.896" stop-color="#C9C7B0"/>
        <stop offset="0.948" stop-color="#DEDDCB"/>
        <stop offset="0.994" stop-color="#F8F6EB"/>
        <stop offset="1" stop-color="#FBF9EF"/>
        </linearGradient>
        <linearGradient id="paint1_linear_73102_421" x1="7.36847" y1="0.971942" x2="9.27649" y2="12.8864" gradientUnits="userSpaceOnUse">
        <stop stop-color="#48A547"/>
        <stop offset="1" stop-color="#3F9143"/>
        </linearGradient>
        <linearGradient id="paint2_linear_73102_421" x1="4.59679" y1="7.87751" x2="9.7171" y2="6.16272" gradientUnits="userSpaceOnUse">
        <stop stop-color="#41A247"/>
        <stop offset="0.352" stop-color="#4BA74B"/>
        <stop offset="0.956" stop-color="#67B554"/>
        <stop offset="1" stop-color="#69B655"/>
        </linearGradient>
        </defs>

    </g>

    <g id='react native'>
    
        <path d="M8.00007 9.42495C8.78708 9.42495 9.42507 8.78696 9.42507 7.99995C9.42507 7.21295 8.78708 6.57495 8.00007 6.57495C7.21307 6.57495 6.57507 7.21295 6.57507 7.99995C6.57507 8.78696 7.21307 9.42495 8.00007 9.42495Z" fill="#DCFB61"/>
        <path d="M13.4125 5.64995C13.1375 5.54995 12.85 5.44995 12.55 5.36245C12.625 5.06245 12.6875 4.76245 12.7375 4.47495C13 2.82495 12.7125 1.66245 11.9125 1.21245C11.675 1.07495 11.4125 1.01245 11.1125 1.01245C10.2375 1.01245 9.12505 1.66245 8.00005 2.74995C6.87505 1.66245 5.76255 1.01245 4.88755 1.01245C4.58755 1.01245 4.32505 1.07495 4.08755 1.21245C3.28755 1.67495 3.00005 2.83745 3.26255 4.47495C3.31255 4.76245 3.37505 5.06245 3.45005 5.36245C3.15005 5.44995 2.86255 5.53745 2.58755 5.64995C1.02505 6.24995 0.175049 7.07495 0.175049 7.99995C0.175049 8.92495 1.03755 9.74995 2.58755 10.35C2.86255 10.45 3.15005 10.55 3.45005 10.6375C3.37505 10.9375 3.31255 11.2375 3.26255 11.525C3.00005 13.175 3.28755 14.3375 4.08755 14.7875C4.32505 14.925 4.58755 14.9875 4.88755 14.9875C5.77505 14.9875 6.88755 14.3375 8.00005 13.25C9.12505 14.3375 10.2375 14.9875 11.1125 14.9875C11.4125 14.9875 11.675 14.925 11.9125 14.7875C12.7125 14.325 13 13.1625 12.7375 11.525C12.6875 11.2375 12.625 10.9375 12.55 10.6375C12.85 10.55 13.1375 10.4625 13.4125 10.35C14.975 9.74995 15.825 8.92495 15.825 7.99995C15.825 7.07495 14.975 6.24995 13.4125 5.64995ZM11.5625 1.83745C12.075 2.13745 12.25 3.06245 12.0375 4.37495C12 4.63745 11.9375 4.91245 11.8625 5.19995C11.2125 5.04995 10.525 4.94995 9.80005 4.88745C9.37505 4.28745 8.93755 3.74995 8.50005 3.26245C9.42505 2.34995 10.3625 1.72495 11.125 1.72495C11.2875 1.72495 11.4375 1.76245 11.5625 1.83745ZM10.1625 9.24995C9.93755 9.64995 9.67505 10.05 9.40005 10.45C8.93755 10.4875 8.47505 10.5 8.00005 10.5C7.51255 10.5 7.05005 10.4875 6.60005 10.45C6.32505 10.05 6.07505 9.64995 5.85005 9.24995C5.61255 8.83745 5.38755 8.41245 5.18755 7.99995C5.38755 7.58745 5.61255 7.16245 5.85005 6.74995C6.07505 6.34995 6.33755 5.94995 6.61255 5.54995C7.07505 5.51245 7.53755 5.49995 8.01255 5.49995C8.50005 5.49995 8.96255 5.51245 9.41255 5.54995C9.68755 5.94995 9.93755 6.34995 10.1625 6.74995C10.4 7.16245 10.625 7.58745 10.825 7.99995C10.6125 8.41245 10.4 8.82495 10.1625 9.24995ZM11.2 8.83745C11.3875 9.27495 11.5375 9.69995 11.675 10.125C11.25 10.225 10.8 10.3 10.325 10.3625C10.475 10.125 10.6375 9.87495 10.775 9.61245C10.925 9.34995 11.0625 9.08745 11.2 8.83745ZM8.00005 12.225C7.70005 11.9 7.41255 11.55 7.13755 11.1875C7.42505 11.2 7.71255 11.2125 8.00005 11.2125C8.28755 11.2125 8.57505 11.2 8.86255 11.1875C8.58755 11.55 8.30005 11.9 8.00005 12.225ZM5.67505 10.35C5.20005 10.2875 4.75005 10.2125 4.32505 10.1125C4.46255 9.69995 4.61255 9.26245 4.80005 8.82495C4.93755 9.07495 5.07505 9.33745 5.22505 9.58745C5.37505 9.86245 5.52505 10.1 5.67505 10.35ZM4.80005 7.16245C4.61255 6.72495 4.46255 6.29995 4.32505 5.87495C4.75005 5.77495 5.20005 5.69995 5.67505 5.63745C5.52505 5.87495 5.36255 6.12495 5.22505 6.38745C5.07505 6.64995 4.93755 6.91245 4.80005 7.16245ZM8.00005 3.77495C8.30005 4.09995 8.58755 4.44995 8.86255 4.81245C8.57505 4.79995 8.28755 4.78745 8.00005 4.78745C7.71255 4.78745 7.42505 4.79995 7.13755 4.81245C7.41255 4.44995 7.70005 4.09995 8.00005 3.77495ZM10.775 6.39995L10.325 5.64995C10.8 5.71245 11.25 5.78745 11.675 5.88745C11.5375 6.29995 11.3875 6.73745 11.2 7.17495C11.0625 6.91245 10.925 6.64995 10.775 6.39995ZM3.96255 4.37495C3.75005 3.06245 3.92505 2.13745 4.43755 1.83745C4.56255 1.76245 4.71255 1.72495 4.87505 1.72495C5.62505 1.72495 6.56255 2.33745 7.50005 3.26245C7.06255 3.73745 6.62505 4.28745 6.20005 4.88745C5.47505 4.94995 4.78755 5.06245 4.13755 5.19995C4.06255 4.91245 4.01255 4.63745 3.96255 4.37495ZM0.875049 7.99995C0.875049 7.41245 1.58755 6.78745 2.83755 6.32495C3.08755 6.22495 3.36255 6.13745 3.63755 6.06245C3.83755 6.68745 4.08755 7.34995 4.38755 8.01245C4.08755 8.67495 3.82505 9.32495 3.63755 9.94995C1.91255 9.44995 0.875049 8.69995 0.875049 7.99995ZM4.43755 14.1625C3.92505 13.8625 3.75005 12.9375 3.96255 11.625C4.00005 11.3625 4.06255 11.0875 4.13755 10.8C4.78755 10.95 5.47505 11.05 6.20005 11.1125C6.62505 11.7125 7.06255 12.25 7.50005 12.7375C6.57505 13.65 5.63755 14.275 4.87505 14.275C4.71255 14.275 4.56255 14.2375 4.43755 14.1625ZM12.0375 11.625C12.25 12.9375 12.075 13.8625 11.5625 14.1625C11.4375 14.2375 11.2875 14.275 11.125 14.275C10.375 14.275 9.43755 13.6625 8.50005 12.7375C8.93755 12.2625 9.37505 11.7125 9.80005 11.1125C10.525 11.05 11.2125 10.9375 11.8625 10.8C11.9375 11.0875 11.9875 11.3625 12.0375 11.625ZM13.1625 9.67495C12.9125 9.77495 12.6375 9.86245 12.3625 9.93745C12.1625 9.31245 11.9125 8.64995 11.6125 7.98745C11.9125 7.32495 12.175 6.67495 12.3625 6.04995C14.0875 6.54995 15.125 7.29995 15.125 7.99995C15.125 8.58745 14.4 9.21245 13.1625 9.67495Z" fill="#DCFB61"/>

    </g>

    <g id='nest js'>
    
        <path d="M11.5 15.5L12 12.03C10.5 16 8.34 15.28 7.52 15.5C7.29 15.56 9.19 15.02 10 13.5C9.1 13.83 8.44 14 8.02 14C9.44 12.77 9.93 11.6 9.52 10.5C9.18 12.83 4.91 14.61 3.99 12.56C3.39 11.19 3.71 10.33 4.96 9.99C4.96 11.05 5.47 11.58 6.5 11.58V10.5L8.47 11.41C8.16 8.14 6 6.83 2 7.5C1 6.35 0.5 5.52 0.5 5C0.5 4.22 0.75 4 1.5 4C2.25 4 2.5 3.98 3.53 2.95C5.09 1.46 7.1 1.1 9.5 2.57C9.28 1.94 9.63 1.25 10.55 0.5C12.03 1.23 12.68 2.23 12.49 3.5C12.3 4.77 11.47 5.44 9.99 5.5C10.48 5.87 11.14 5.87 11.99 5.5C12.3953 5.33278 12.7473 5.05818 13.0081 4.70576C13.2688 4.35334 13.4286 3.93646 13.47 3.5C14.82 5.17 15.49 6.83 15.49 8.5C15.49 10.17 15.14 11.52 14.45 12.56L13.95 10.5C12.97 14 12.39 14.8 11.48 15.5H11.5Z" stroke="#ED8796" stroke-linecap="round" stroke-linejoin="round"/>

    </g>

    <g id='postgresql'>
    
        <path d="M11.7261 11.5141C11.8242 10.6974 11.7948 10.5776 12.4031 10.7099L12.5575 10.7234C13.0252 10.7447 13.6371 10.6482 13.9966 10.4812C14.7705 10.1221 15.2292 9.52268 14.4663 9.68006C12.7258 10.0392 12.6062 9.44981 12.6062 9.44981C14.4441 6.72293 15.2123 3.26131 14.5491 2.41393C12.7403 0.102808 9.60947 1.19568 9.55709 1.22393L9.54034 1.22706C9.19647 1.15568 8.81159 1.11306 8.37922 1.10606C7.59159 1.09306 6.99397 1.31256 6.54059 1.65631C6.54059 1.65631 0.955219 -0.644817 1.21509 4.55018C1.27034 5.65531 2.79909 12.9124 4.62259 10.7204C5.28909 9.91893 5.93309 9.24118 5.93309 9.24118C6.25284 9.45356 6.63584 9.56206 7.03734 9.52306L7.06847 9.49656C7.05872 9.59606 7.06297 9.69343 7.08084 9.80868C6.61122 10.3336 6.74922 10.4257 5.81009 10.6189C4.85984 10.8147 5.41809 11.1633 5.78247 11.2544C6.22434 11.3649 7.24647 11.5214 7.93722 10.5547L7.90972 10.6649C8.09397 10.8124 8.08159 11.7246 8.10759 12.3762C8.13372 13.0279 8.17734 13.6361 8.31022 13.9947C8.44309 14.3533 8.59984 15.2767 9.83409 15.0122C10.8656 14.7917 11.6542 14.4736 11.7261 11.5141Z" fill="black"/>
        <path d="M9.43219 15.657C8.88632 15.657 8.53082 15.4459 8.31494 15.242C7.98907 14.9345 7.85982 14.5384 7.78257 14.3017L7.74919 14.203C7.59369 13.7832 7.54094 13.1789 7.50969 12.4006C7.50494 12.2837 7.50169 12.1634 7.49807 12.0357C7.49544 11.9424 7.49219 11.8252 7.48744 11.7027C7.29078 11.7965 7.08203 11.8625 6.86719 11.8987C6.48232 11.9645 6.06857 11.9432 5.63719 11.8354C5.33282 11.7592 5.01657 11.6015 4.83632 11.3579C4.31094 11.818 3.80982 11.7556 3.53682 11.6645C3.05519 11.5039 2.62419 11.0525 2.21907 10.2849C1.93044 9.73798 1.65132 9.02548 1.38932 8.16698C0.933066 6.67198 0.643191 5.09735 0.617441 4.58035C0.536441 2.96223 0.972066 1.80498 1.91194 1.1411C3.39457 0.0938516 5.64094 0.709727 6.45994 0.989352C7.01019 0.657727 7.65757 0.496352 8.38907 0.507977C8.78194 0.514352 9.15607 0.548852 9.50357 0.610852C9.86607 0.496852 10.5821 0.333227 11.4017 0.343477C12.9118 0.361477 14.1632 0.949977 15.0203 2.04535C15.6321 2.82685 15.3296 4.46798 15.0949 5.37673C14.7647 6.65498 14.1861 8.01448 13.4753 9.19798C13.6683 9.19935 13.9479 9.17623 14.3454 9.0941C15.1297 8.93223 15.3591 9.35273 15.4213 9.54098C15.6707 10.2962 14.5867 10.867 14.2486 11.024C13.8153 11.2251 13.1089 11.3476 12.5304 11.3211L12.5052 11.3195L12.3532 11.3061L12.3382 11.4329L12.3237 11.5567C12.2848 13.0566 12.0706 14.0065 11.6297 14.6341C11.1676 15.2921 10.5253 15.4765 9.95957 15.5977C9.76657 15.639 9.59119 15.657 9.43219 15.657ZM8.28344 10.1981C8.63582 10.4801 8.66669 11.0107 8.69432 12.0024C8.69782 12.1261 8.70107 12.2432 8.70544 12.3526C8.71869 12.6839 8.74982 13.4595 8.87132 13.7872C8.88844 13.8336 8.90382 13.8806 8.92007 13.9305C9.05544 14.345 9.12332 14.5529 9.70869 14.4277C10.2001 14.3224 10.4527 14.2279 10.6504 13.9464C10.9378 13.5371 11.0986 12.7139 11.1281 11.4995L11.7259 11.514L11.1322 11.4427L11.1497 11.2945C11.2066 10.8057 11.2476 10.4527 11.5742 10.2192C11.8363 10.032 12.1349 10.0501 12.3728 10.093C12.1114 9.89548 12.0392 9.66385 12.0199 9.56885L11.9701 9.32323L12.1102 9.11535C12.9173 7.91785 13.5828 6.4461 13.9363 5.07735C14.2996 3.67098 14.1888 2.9241 14.0781 2.78285C12.6119 0.909477 10.0696 1.68298 9.80407 1.77073L9.75919 1.79498L9.53419 1.83685L9.41894 1.81298C9.10119 1.74698 8.74819 1.71048 8.36982 1.70435C7.77532 1.69435 7.29569 1.83485 6.90244 2.13323L6.62957 2.3401L6.31294 2.20973C5.63644 1.9331 3.64944 1.37698 2.60094 2.1196C2.01894 2.53185 1.75382 3.3396 1.81282 4.52048C1.83232 4.91035 2.09719 6.38623 2.53419 7.8176C3.13807 9.79573 3.68682 10.4529 3.91594 10.5292C3.95594 10.5427 4.05969 10.4621 4.16294 10.3381C4.59346 9.82204 5.03924 9.3189 5.49969 8.82935L5.84594 8.46498L6.26457 8.7431C6.43332 8.85523 6.61944 8.91885 6.81057 8.93085L7.80894 8.07935L7.66432 9.55535C7.66107 9.58848 7.65944 9.6336 7.67244 9.71735L7.71594 9.9971L7.52719 10.2081L7.50544 10.2326L8.05394 10.4857L8.28344 10.1981Z" fill="black"/>
        <path d="M14.4663 9.68005C12.7257 10.0392 12.6061 9.4498 12.6061 9.4498C14.444 6.7228 15.2122 3.26105 14.5492 2.41393C12.7405 0.102928 9.60934 1.1958 9.55709 1.22418L9.54022 1.22718C9.19634 1.1558 8.81147 1.1133 8.37884 1.1063C7.59122 1.09343 6.99384 1.3128 6.54047 1.65655C6.54047 1.65655 0.954969 -0.644447 1.21472 4.55043C1.26997 5.65568 2.79872 12.9128 4.62222 10.7208C5.28872 9.9193 5.93259 9.24155 5.93259 9.24155C6.25247 9.45393 6.63534 9.56243 7.03672 9.52343L7.06797 9.49693C7.05822 9.59643 7.06272 9.6938 7.08047 9.80905C6.61072 10.3339 6.74872 10.4261 5.80959 10.6193C4.85934 10.8151 5.41759 11.1637 5.78209 11.2548C6.22384 11.3653 7.24609 11.5218 7.93672 10.5551L7.90909 10.6653C8.09322 10.8128 8.22247 11.6243 8.20084 12.3599C8.17922 13.0956 8.16459 13.6007 8.30972 13.9952C8.45472 14.3897 8.59922 15.2772 9.83372 15.0127C10.8652 14.7917 11.3997 14.2188 11.4742 13.2633C11.527 12.5839 11.6463 12.6844 11.654 12.0771L11.7498 11.7896C11.8603 10.8687 11.7673 10.5717 12.403 10.7098L12.5573 10.7233C13.0251 10.7446 13.6372 10.6481 13.9966 10.4811C14.7703 10.1222 15.2292 9.52268 14.4663 9.68005Z" fill="#336791"/>
        <path d="M9.49462 15.2883C8.46562 15.2883 8.13962 14.4735 8.00625 14.1402C7.811 13.6518 7.76887 11.7566 7.81237 10.2023C7.81302 10.1761 7.81884 10.1503 7.82951 10.1263C7.84018 10.1024 7.85549 10.0808 7.87454 10.0628C7.8936 10.0448 7.91603 10.0307 7.94054 10.0214C7.96505 10.0121 7.99116 10.0077 8.01737 10.0086C8.04355 10.0093 8.06933 10.0152 8.09324 10.0258C8.11715 10.0365 8.13872 10.0518 8.15672 10.0708C8.17471 10.0899 8.18878 10.1123 8.19812 10.1367C8.20745 10.1612 8.21187 10.1873 8.21112 10.2135C8.161 12.0061 8.23212 13.6306 8.37662 13.9921C8.60212 14.5557 8.94412 15.0487 9.911 14.8416C10.8289 14.6447 11.1726 14.2967 11.3257 13.4091C11.4432 12.728 11.6756 10.7902 11.7042 10.4078C11.7062 10.3817 11.7132 10.3562 11.725 10.3328C11.7368 10.3094 11.7531 10.2886 11.7729 10.2715C11.7928 10.2544 11.8158 10.2414 11.8407 10.2332C11.8656 10.225 11.8919 10.2218 11.918 10.2238C11.9707 10.2278 12.0197 10.2526 12.0542 10.2926C12.0887 10.3327 12.1059 10.3848 12.102 10.4376C12.0721 10.8357 11.8409 12.7697 11.7189 13.477C11.5381 14.5253 11.0707 15.0008 9.99462 15.2316C9.81175 15.2707 9.64562 15.2882 9.49462 15.2883ZM3.91512 11.3082C3.82518 11.3079 3.73587 11.2931 3.65062 11.2645C2.98225 11.0415 2.34562 9.95295 1.75837 8.02883C1.31137 6.5642 1.02812 5.03545 1.00325 4.53858C0.92962 3.06558 1.30887 2.02345 2.13075 1.44133C3.75662 0.289326 6.49175 1.38633 6.60737 1.43358C6.65635 1.45358 6.69538 1.49223 6.71587 1.54101C6.73636 1.58979 6.73663 1.64472 6.71662 1.6937C6.69661 1.74268 6.65797 1.78171 6.60918 1.8022C6.5604 1.82269 6.50548 1.82296 6.4565 1.80295C6.43012 1.7922 3.80737 0.741451 2.3605 1.76733C1.65775 2.26558 1.33512 3.19133 1.4015 4.5187C1.42237 4.93733 1.687 6.42933 2.13975 7.91233C2.664 9.63008 3.26062 10.714 3.77675 10.8861C3.85775 10.9131 4.10425 10.9952 4.45662 10.5715C4.86753 10.0779 5.29387 9.59743 5.735 9.1307C5.77191 9.09389 5.82176 9.07298 5.87389 9.07246C5.92602 9.07194 5.97628 9.09184 6.01392 9.12791C6.05156 9.16398 6.07358 9.21335 6.07528 9.26546C6.07697 9.31756 6.05821 9.36826 6.02299 9.4067C6.01699 9.41295 5.41712 10.0401 4.76337 10.8266C4.45375 11.199 4.157 11.3082 3.91512 11.3082ZM12.5937 9.62758C12.5576 9.62753 12.5221 9.61765 12.4911 9.59901C12.4602 9.58036 12.4348 9.55365 12.4179 9.52172C12.4009 9.48979 12.3929 9.45385 12.3948 9.41774C12.3967 9.38162 12.4083 9.3467 12.4285 9.3167C14.2864 6.55983 14.9385 3.2287 14.38 2.51495C13.677 1.6167 12.6844 1.14758 11.4295 1.12045C10.5004 1.10045 9.76187 1.3377 9.64112 1.37908L9.61075 1.39145C9.48937 1.42958 9.39625 1.36308 9.36112 1.28533C9.34109 1.24078 9.33806 1.19045 9.35259 1.14382C9.36712 1.09719 9.39821 1.05749 9.43999 1.0322C9.44574 1.02883 9.46399 1.02108 9.49362 1.0102C9.69874 0.935076 10.4485 0.710076 11.3771 0.720701C12.7656 0.735451 13.9126 1.27083 14.6939 2.2692C15.0635 2.74158 15.0644 3.82983 14.6962 5.25508C14.321 6.7082 13.6149 8.26983 12.7591 9.5397C12.7209 9.59683 12.6579 9.62758 12.5937 9.62758ZM12.6887 10.9038C12.3715 10.9038 12.0871 10.8591 11.9169 10.7571C11.7419 10.6522 11.7085 10.5097 11.7041 10.4341C11.6564 9.59533 12.1191 9.44933 12.3551 9.3827C12.3222 9.33295 12.2755 9.27445 12.2271 9.21408C12.0895 9.04208 11.901 8.80658 11.7557 8.45433C11.733 8.39933 11.6617 8.27145 11.5792 8.12333C11.1319 7.32108 10.201 5.6517 10.799 4.79683C11.0757 4.4012 11.6269 4.24545 12.4389 4.33233C12.2 3.60458 11.0625 1.32808 8.36337 1.28383C7.55162 1.27033 6.88587 1.51995 6.38562 2.02508C5.26562 3.1562 5.30612 5.20283 5.30675 5.22333C5.30743 5.24951 5.30296 5.27557 5.29358 5.30002C5.2842 5.32448 5.27009 5.34684 5.25206 5.36584C5.23404 5.38484 5.21244 5.40011 5.18852 5.41077C5.16459 5.42142 5.1388 5.42726 5.11262 5.42795C5.08644 5.42864 5.06038 5.42417 5.03592 5.41478C5.01147 5.4054 4.9891 5.39129 4.9701 5.37327C4.9511 5.35524 4.93584 5.33365 4.92518 5.30972C4.91452 5.2858 4.90868 5.26001 4.908 5.23383C4.9055 5.14295 4.86375 2.9952 6.10225 1.74433C6.68187 1.15895 7.44487 0.869951 8.37 0.885076C10.0967 0.913451 11.2082 1.79133 11.8365 2.5227C12.5214 3.31983 12.8571 4.19908 12.8847 4.49258C12.9054 4.71083 12.7487 4.75445 12.7171 4.76095L12.6451 4.76258C11.8482 4.63495 11.337 4.72358 11.1256 5.02558C10.6707 5.6757 11.5514 7.25483 11.9274 7.9292C12.0234 8.1012 12.0926 8.22558 12.1244 8.30233C12.2479 8.60183 12.409 8.80308 12.5384 8.96483C12.6522 9.10708 12.7509 9.23045 12.7861 9.3752C12.8025 9.40395 13.0349 9.7477 14.4137 9.46308C14.7594 9.39183 14.9666 9.4527 15.03 9.64433C15.1546 10.0212 14.4554 10.4608 14.0682 10.6406C13.7214 10.8018 13.1677 10.9038 12.6887 10.9038ZM12.1017 10.4012C12.1455 10.4453 12.3644 10.5215 12.8176 10.502C13.2206 10.4847 13.6456 10.3971 13.9006 10.2787C14.2267 10.1272 14.4445 9.95783 14.5572 9.8422L14.4947 9.8537C13.6131 10.0357 12.9895 10.0115 12.6412 9.78158C12.6178 9.76614 12.5953 9.74941 12.5737 9.73145C12.536 9.74633 12.5011 9.75608 12.4762 9.76308C12.2787 9.81845 12.0745 9.87583 12.1017 10.4012ZM6.4065 11.5156C6.1875 11.5156 5.957 11.4857 5.72162 11.4268C5.47775 11.3658 5.06662 11.1822 5.07287 10.8806C5.08 10.5422 5.57212 10.4407 5.75737 10.4026C6.42662 10.2647 6.47025 10.2095 6.67937 9.94383C6.74037 9.86645 6.81625 9.77008 6.91975 9.65458C7.07337 9.48258 7.24125 9.39545 7.41875 9.39545C7.54237 9.39545 7.64375 9.43733 7.71075 9.4652C7.92425 9.5537 8.10237 9.7677 8.17562 10.0236C8.24175 10.2545 8.21012 10.4767 8.08687 10.6493C7.68225 11.216 7.10112 11.5156 6.4065 11.5156ZM5.50375 10.8977C5.56387 10.9442 5.68437 11.0063 5.8185 11.0398C6.02237 11.0908 6.22012 11.1167 6.40662 11.1167C6.97487 11.1167 7.43112 10.8815 7.7625 10.4175C7.83162 10.3207 7.81087 10.1978 7.79237 10.1332C7.75362 9.99783 7.65737 9.8747 7.55825 9.83358C7.5045 9.81133 7.45987 9.79433 7.41887 9.79433C7.39687 9.79433 7.32987 9.79433 7.21712 9.92045C7.1393 10.0079 7.06451 10.0981 6.99287 10.1907C6.73237 10.5215 6.613 10.6337 5.838 10.7933C5.64887 10.8321 5.55187 10.8716 5.50375 10.8977ZM7.03737 9.9777C6.98976 9.97763 6.94374 9.96052 6.90763 9.92948C6.87153 9.89844 6.84771 9.85551 6.8405 9.80845C6.83549 9.77535 6.83215 9.74201 6.8305 9.70858C6.3225 9.69908 5.83237 9.48108 5.46025 9.09283C4.98975 8.60195 4.77562 7.92183 4.87287 7.22695C4.9785 6.47233 4.939 5.8062 4.91775 5.44833C4.91187 5.34883 4.90762 5.27695 4.90787 5.2272C4.90825 5.16408 4.9095 4.9967 5.469 4.71308C5.668 4.6122 6.067 4.4362 6.50287 4.39108C7.225 4.31645 7.701 4.63808 7.8435 5.29683C8.22812 7.07533 7.874 7.86195 7.61537 8.43645C7.56725 8.54345 7.52175 8.64445 7.48537 8.74233L7.45325 8.82858C7.31662 9.19495 7.1985 9.51145 7.23475 9.74783C7.23873 9.77371 7.23757 9.80013 7.23133 9.82557C7.2251 9.85101 7.21391 9.87497 7.19842 9.89609C7.18292 9.9172 7.16341 9.93506 7.14102 9.94863C7.11862 9.96221 7.09376 9.97124 7.06787 9.9752L7.03737 9.9777ZM5.308 5.28245L5.31575 5.42483C5.33775 5.79658 5.37875 6.48833 5.26775 7.28233C5.18762 7.85545 5.36262 8.41483 5.74812 8.81683C6.05275 9.13458 6.45362 9.30995 6.86562 9.30995H6.87412C6.92025 9.11558 6.99687 8.91033 7.07937 8.6892L7.11125 8.60345C7.15237 8.49295 7.2005 8.38595 7.2515 8.2727C7.50037 7.7197 7.81025 7.03133 7.45337 5.3812C7.38275 5.05433 7.21137 4.8652 6.92975 4.80283C6.35125 4.67508 5.48912 5.1102 5.308 5.28245ZM6.51175 5.19783C6.50175 5.26833 6.64087 5.45658 6.82237 5.4817C7.0035 5.50708 7.1585 5.35983 7.16837 5.28933C7.17825 5.21883 7.03925 5.14108 6.85775 5.11583C6.67625 5.09058 6.52137 5.12733 6.51175 5.19783ZM6.864 5.55108L6.81312 5.54758C6.70062 5.53195 6.58687 5.46108 6.509 5.35783C6.48162 5.32158 6.437 5.25133 6.44587 5.18858C6.4585 5.09658 6.57075 5.04145 6.74587 5.04145C6.785 5.04145 6.82574 5.04433 6.86674 5.05008C6.96249 5.06333 7.05137 5.09095 7.117 5.12758C7.23075 5.19108 7.23912 5.26195 7.234 5.29858C7.22 5.4002 7.05837 5.55108 6.864 5.55108ZM6.57787 5.20958C6.5835 5.25308 6.69125 5.39658 6.8315 5.41595L6.86412 5.4182C6.99362 5.4182 7.09037 5.31633 7.10175 5.28295C7.08975 5.2602 7.0065 5.2037 6.84862 5.1817C6.81462 5.1769 6.78033 5.17443 6.746 5.17433C6.6445 5.17433 6.59062 5.1972 6.57787 5.20958ZM12.0285 5.05395C12.0384 5.12445 11.8994 5.3127 11.718 5.33795C11.5367 5.3632 11.3816 5.21608 11.3716 5.14558C11.3621 5.07508 11.5011 4.9972 11.6824 4.97208C11.8636 4.9467 12.0185 4.98358 12.0285 5.05395ZM11.6761 5.37395C11.5016 5.37395 11.351 5.2382 11.3386 5.15008C11.3242 5.04433 11.4984 4.96395 11.6776 4.93908C11.7171 4.93358 11.7562 4.93083 11.7939 4.93083C11.9486 4.93083 12.0511 4.9762 12.0614 5.04945C12.068 5.09683 12.0316 5.16995 11.969 5.23595C11.9276 5.27933 11.8407 5.35445 11.7224 5.37083L11.6761 5.37395ZM11.794 4.99733C11.7593 4.99733 11.7237 4.99987 11.687 5.00495C11.5069 5.03008 11.3994 5.10233 11.4046 5.14108C11.4106 5.1837 11.5256 5.30758 11.6762 5.30758L11.7134 5.30495C11.8117 5.29133 11.8856 5.22708 11.9209 5.19008C11.9762 5.13195 11.9982 5.0772 11.9956 5.05858C11.9921 5.03383 11.9256 4.99733 11.794 4.99733ZM12.2896 9.1027C12.2535 9.10272 12.218 9.09292 12.187 9.07433C12.156 9.05575 12.1307 9.02909 12.1137 8.9972C12.0967 8.96532 12.0887 8.92941 12.0905 8.89332C12.0924 8.85723 12.104 8.82232 12.1241 8.79233C12.5489 8.15795 12.4711 7.51108 12.396 6.88545C12.3639 6.61895 12.3309 6.34333 12.3394 6.07883C12.3481 5.8067 12.3827 5.5822 12.4161 5.36508C12.4557 5.10783 12.4932 4.86483 12.4777 4.57633C12.4763 4.55018 12.4801 4.52401 12.4888 4.49931C12.4975 4.47461 12.511 4.45186 12.5285 4.43237C12.546 4.41289 12.5671 4.39703 12.5907 4.38572C12.6144 4.37441 12.64 4.36786 12.6661 4.36645C12.6923 4.36504 12.7184 4.36879 12.7431 4.37749C12.7678 4.3862 12.7906 4.39968 12.8101 4.41717C12.8494 4.4525 12.8731 4.50201 12.876 4.55483C12.8937 4.88458 12.8514 5.15958 12.8104 5.4257C12.7787 5.63108 12.746 5.84345 12.7381 6.09158C12.7305 6.32583 12.7604 6.57458 12.792 6.83783C12.872 7.50308 12.9626 8.25708 12.4556 9.0142C12.4373 9.04144 12.4126 9.06375 12.3837 9.07919C12.3547 9.09462 12.3224 9.1027 12.2896 9.1027Z" fill="white"/>

    </g>

    <g id='redux'>
    
        <path d="M44.3452 42.4333C46.707 42.1888 48.4987 40.1528 48.4172 37.7093C48.336 35.266 46.2997 33.3112 43.8565 33.3112H43.6937C41.1687 33.3927 39.2142 35.5102 39.2957 38.035C39.3772 39.2567 39.8657 40.3155 40.5987 41.0485C37.8297 46.5055 33.5947 50.4962 27.2422 53.8355C22.9257 56.116 18.4465 56.9305 13.9672 56.3605C10.3022 55.8718 7.45175 54.243 5.65975 51.555C3.05375 47.5643 2.8095 43.2475 5.0085 38.931C6.556 35.836 8.999 33.5555 10.5465 32.4152C10.2207 31.3565 9.732 29.5647 9.48775 28.2617C-2.3215 36.8135 -1.09975 48.3787 2.48375 53.8355C5.17125 57.908 10.628 60.4328 16.6547 60.4328C18.2835 60.4328 19.9122 60.2698 21.5412 59.8628C31.966 57.8265 39.866 51.6365 44.3452 42.4333ZM58.6792 32.334C52.4895 25.0852 43.368 21.0945 32.9432 21.0945H31.6402C30.9072 19.6285 29.3597 18.651 27.6495 18.651H27.4865C24.962 18.7325 23.0075 20.85 23.0887 23.375C23.1702 25.8182 25.2062 27.773 27.6495 27.773H27.8122C29.604 27.6915 31.1515 26.5512 31.803 25.0037H33.269C39.4587 25.0037 45.3225 26.7955 50.6165 30.2978C54.6885 32.9855 57.6205 36.4878 59.2492 40.7228C60.6337 44.1435 60.5522 47.4827 59.0862 50.3335C56.806 54.65 52.9782 57.012 47.9287 57.012C44.671 57.012 41.5762 56.0345 39.9472 55.3015C39.0515 56.116 37.4225 57.419 36.2822 58.2337C39.7845 59.8625 43.368 60.7585 46.7885 60.7585C54.607 60.7585 60.3895 56.4418 62.5885 52.1253C64.9502 47.4013 64.7872 39.2567 58.6792 32.334ZM17.3062 43.8175C17.3877 46.261 19.4237 48.2155 21.867 48.2155H22.03C24.5547 48.1342 26.5092 46.0165 26.4277 43.4917C26.3465 41.0482 24.3102 39.0938 21.867 39.0938H21.7042C21.5412 39.0938 21.2967 39.0937 21.1342 39.175C17.795 33.6367 16.4105 27.61 16.8992 21.0942C17.2247 16.2075 18.8537 11.9723 21.7042 8.47C24.066 5.4565 28.6267 3.9905 31.7217 3.90925C40.3545 3.74625 44.0192 14.497 44.2637 18.8137C45.3225 19.058 47.1142 19.6282 48.336 20.0355C47.3585 6.8415 39.2142 0 31.396 0C24.066 0 17.3062 5.294 14.6185 13.1128C10.8722 23.5378 13.3155 33.5555 17.8762 41.4557C17.4692 42.0257 17.2247 42.9215 17.3062 43.8175Z" fill="#764ABC"/>

    </g>

    <g id='styled_component'>
    
        <path d="M9.02505 14.8C9.04605 14.7525 9.09905 14.7195 9.13755 14.6795C9.72505 14.0635 10.3175 13.453 10.897 12.8295C11.0784 12.6621 11.2185 12.4549 11.3065 12.2242C11.3944 11.9936 11.4278 11.7457 11.404 11.5C11.3858 11.3948 11.3619 11.2907 11.3325 11.188C11.1745 11.338 11.0275 11.4745 10.8795 11.612C10.6495 11.826 10.4205 12.041 10.1885 12.2525C10.0518 12.3921 9.87588 12.4868 9.68411 12.5242C9.49234 12.5616 9.29373 12.5399 9.11455 12.462C8.93304 12.3956 8.77511 12.2772 8.66041 12.1216C8.54572 11.966 8.47934 11.7801 8.46955 11.587C8.46424 11.5622 8.45706 11.5378 8.44805 11.514C8.27155 11.664 8.10255 11.802 7.93505 11.944L4.45355 14.894C4.42955 14.9145 4.40355 14.94 4.38105 14.96H9.02255L9.01555 14.9555C8.99055 14.938 9.00355 14.846 9.02505 14.8ZM4.16855 14.8C4.20956 14.746 4.25943 14.6994 4.31605 14.662L9.13405 10.5745C9.46271 10.2955 9.78988 10.015 10.1155 9.73303C10.1562 9.70545 10.1879 9.6665 10.2065 9.62103C10.284 9.28152 10.295 8.93023 10.239 8.58653C10.189 8.62153 10.162 8.63653 10.139 8.66103C9.74455 9.01403 9.35205 9.37003 8.95555 9.72103C8.82428 9.85336 8.65439 9.9406 8.47035 9.97016C8.28632 9.99973 8.09765 9.97009 7.93155 9.88553C7.76209 9.80546 7.62026 9.6768 7.52411 9.51592C7.42795 9.35504 7.38181 9.1692 7.39155 8.98203V8.82003C7.31905 8.87303 7.26605 8.90853 7.21655 8.94853C5.28821 10.4925 3.36021 12.0354 1.43255 13.577C1.34555 13.6465 1.24155 13.8015 1.12755 13.651C1.01355 13.5005 1.18705 13.4385 1.27455 13.3685C3.32955 11.7195 5.38555 10.072 7.44255 8.42603C7.77755 8.15753 7.79955 8.04503 7.58155 7.61853L7.45155 7.74053C7.09505 8.07203 6.73455 8.39903 6.38355 8.73603C6.23957 8.87491 6.05924 8.97023 5.86339 9.011C5.66755 9.05176 5.46416 9.03629 5.27673 8.96639C5.08929 8.89649 4.92545 8.775 4.80412 8.61595C4.68279 8.4569 4.60893 8.26677 4.59105 8.06753C4.52455 8.11753 4.46705 8.15403 4.41255 8.19653L1.36255 10.5605C1.30987 10.612 1.24989 10.6555 1.18455 10.6895C1.13516 10.7043 1.08221 10.7016 1.03455 10.682V14.9625H4.16255C4.1511 14.9368 4.14569 14.9087 4.14673 14.8806C4.14777 14.8524 4.15523 14.8249 4.16855 14.8Z" fill="#FFCEBF"/>
        <path d="M12.6185 1.21148C12.5335 1.48998 12.451 1.76898 12.3765 2.05048C12.3079 2.24942 12.316 2.46679 12.3992 2.66006C12.4824 2.85333 12.6348 3.0086 12.8265 3.09548C13.413 3.40443 14.0743 3.54299 14.7355 3.49548V1.25898C14.7277 1.20996 14.7304 1.15985 14.7435 1.11198C14.7576 1.08496 14.7753 1.05991 14.796 1.03748H12.6165C12.65 1.07648 12.6385 1.14498 12.6185 1.21148Z" fill="#FF6196"/>
        <path d="M8.24096 6.01598C8.23132 6.26576 8.14392 6.50628 7.99096 6.70398C7.44637 7.40677 6.82108 8.04313 6.12796 8.59998C6.01625 8.7036 5.87455 8.7691 5.72324 8.78707C5.57194 8.80504 5.41883 8.77455 5.28596 8.69998C5.15353 8.64364 5.04186 8.54758 4.96636 8.42506C4.89086 8.30254 4.85525 8.1596 4.86446 8.01598C4.88033 7.8396 4.95357 7.67328 5.07296 7.54248C5.8484 6.80365 6.68823 6.13549 7.58246 5.54598C7.64104 5.50004 7.71259 5.47369 7.78697 5.47064C7.86135 5.46758 7.93481 5.488 7.99696 5.52898C8.07868 5.57966 8.14475 5.652 8.18783 5.73798C8.2309 5.82395 8.2493 5.92018 8.24096 6.01598ZM7.64196 9.04648C7.63047 8.93597 7.64472 8.8243 7.68358 8.7202C7.72244 8.61611 7.78486 8.52243 7.86596 8.44648C8.62448 7.74587 9.43884 7.10826 10.301 6.53998C10.327 6.52348 10.351 6.50698 10.3795 6.48998C10.4548 6.43589 10.546 6.40827 10.6387 6.41144C10.7314 6.4146 10.8205 6.44838 10.892 6.50748C10.9611 6.56595 11.01 6.64474 11.0317 6.73263C11.0535 6.82053 11.0469 6.91304 11.013 6.99698C10.9037 7.35999 10.7026 7.68861 10.429 7.95098C9.87291 8.49875 9.30613 9.03552 8.72896 9.56098C8.64204 9.65037 8.52786 9.70831 8.40439 9.72569C8.28092 9.74307 8.15518 9.7189 8.04696 9.65698C7.93318 9.59797 7.8363 9.51096 7.76545 9.40415C7.69459 9.29734 7.6521 9.17425 7.64196 9.04648ZM11.25 9.37698C11.11 9.52698 10.966 9.66998 10.8315 9.82348C10.7914 9.88304 10.7579 9.94674 10.7315 10.0135C10.8055 10.0355 10.892 10.0935 10.952 10.073C11.2575 9.97048 11.5555 9.84748 11.891 9.71798C11.818 9.88598 11.763 10.041 11.6855 10.183C11.3661 10.7195 10.9663 11.2038 10.5 11.619C10.3226 11.79 10.1385 11.9535 9.94746 12.1095C9.84631 12.1934 9.72469 12.249 9.59502 12.2705C9.46535 12.292 9.33229 12.2787 9.20946 12.2319C9.08664 12.1851 8.97844 12.1065 8.89595 12.0042C8.81345 11.9018 8.75962 11.7794 8.73996 11.6495C8.73195 11.5772 8.73834 11.5041 8.75876 11.4343C8.77919 11.3645 8.81324 11.2995 8.85896 11.243C9.53943 10.5042 10.317 9.86113 11.1705 9.33148C11.1809 9.32752 11.1918 9.32533 11.203 9.32498L11.25 9.37698Z" fill="#FF87AF"/>
        <path d="M12.397 7.38545L13.2525 3.58545L13.8525 3.72595L13.543 4.66645C13.254 5.54145 12.9615 6.41645 12.6795 7.29245C12.6245 7.45445 12.5525 7.48445 12.397 7.38545ZM11.431 9.62045C11.5215 9.27495 11.6115 8.95545 11.6875 8.63245C11.7621 8.31938 11.9029 8.02595 12.1005 7.77195C12.222 7.61245 12.3585 7.67595 12.498 7.71045C12.627 7.74195 12.6595 7.83645 12.665 7.96045C12.6851 8.30333 12.5807 8.64193 12.371 8.91395C12.1211 9.22375 11.7981 9.46654 11.431 9.62045Z" fill="#FF6196"/>
        <path d="M14.9964 1.44699C15.004 1.33563 15.0011 1.22381 14.9879 1.11299C14.9773 1.08219 14.957 1.05569 14.9299 1.03749C14.9076 1.0197 14.8817 1.00691 14.8539 0.999986C14.8379 0.996986 14.8154 1.01349 14.7939 1.03699C14.7733 1.05942 14.7556 1.08447 14.7414 1.11149C14.7284 1.15936 14.7257 1.20947 14.7334 1.25849V3.49449C14.0723 3.542 13.411 3.40344 12.8244 3.09449C12.6328 3.00761 12.4804 2.85234 12.3972 2.65907C12.314 2.4658 12.3059 2.24843 12.3744 2.04949C12.4489 1.76799 12.5314 1.48899 12.6164 1.21049C12.6364 1.14399 12.6479 1.07549 12.6164 1.03649C12.5989 1.0175 12.5747 1.00603 12.5489 1.00449C12.5159 1.00484 12.4839 1.01609 12.4579 1.03649C12.4205 1.05875 12.3907 1.09188 12.3724 1.13149C12.2724 1.43149 12.1843 1.73449 12.1079 2.04049C12.0796 2.16115 12.0718 2.28573 12.0849 2.40899C12.1044 2.63195 12.1873 2.84468 12.324 3.02193C12.4606 3.19917 12.6453 3.3335 12.8559 3.40899C12.9504 3.44849 13.0059 3.48749 12.9794 3.61199C12.9431 3.76999 12.9071 3.92815 12.8714 4.08649C12.6264 5.16049 12.3828 6.23499 12.1404 7.30999C12.1331 7.35777 12.1121 7.4024 12.0799 7.43849C11.92 7.56519 11.7857 7.72133 11.6844 7.89849C11.555 8.13201 11.4655 8.38549 11.4194 8.64849C11.4107 8.73239 11.3804 8.81261 11.3315 8.88137C11.2826 8.95014 11.2168 9.00512 11.1404 9.04099C10.9319 9.14649 10.7404 9.28299 10.5089 9.42499C10.5239 9.14658 10.5209 8.8675 10.4999 8.58949C10.4822 8.50397 10.4859 8.41541 10.5107 8.33167C10.5355 8.24792 10.5806 8.1716 10.6419 8.10949C10.9469 7.80738 11.1643 7.42828 11.2709 7.01249C11.3028 6.9161 11.3115 6.81358 11.2965 6.71319C11.2814 6.61281 11.2429 6.51738 11.1841 6.43464C11.1253 6.35189 11.0478 6.28413 10.958 6.23686C10.8681 6.18958 10.7684 6.1641 10.6669 6.16249C10.5026 6.16065 10.3413 6.2065 10.2024 6.29449C9.72538 6.62033 9.25656 6.9581 8.79645 7.30749C8.52295 7.51349 8.26545 7.74149 8.00045 7.95749C7.98896 7.94528 7.97905 7.93167 7.97095 7.91699C7.96614 7.88012 7.95621 7.84411 7.94145 7.80999C7.71995 7.46799 7.87345 7.21949 8.11395 6.96399C8.36419 6.70114 8.50258 6.35139 8.49995 5.98849C8.50763 5.80356 8.44972 5.62186 8.33645 5.47549C8.2757 5.40157 8.20136 5.33996 8.11745 5.29399C7.99779 5.22874 7.86107 5.20153 7.72555 5.216C7.59002 5.23048 7.46213 5.28594 7.35895 5.37499L7.21945 5.47499C6.90095 5.70299 6.57845 5.92499 6.27195 6.16899C5.82446 6.52617 5.38663 6.89531 4.95895 7.27599C4.75895 7.45249 4.61295 7.69349 4.40545 7.85749C3.32345 8.71199 2.22995 9.55099 1.14045 10.3955C1.10292 10.4177 1.06846 10.4448 1.03795 10.476L1.02995 10.4905C1.00695 10.544 0.98745 10.6325 1.01445 10.665C1.02106 10.6721 1.02906 10.6777 1.03795 10.6815C1.08561 10.7011 1.13857 10.7037 1.18795 10.689C1.2533 10.655 1.31327 10.6115 1.36595 10.56L4.41595 8.19599C4.47045 8.15349 4.52795 8.11499 4.59445 8.06699C4.61233 8.26623 4.6862 8.45635 4.80753 8.6154C4.92886 8.77445 5.0927 8.89595 5.28013 8.96585C5.46757 9.03575 5.67095 9.05121 5.8668 9.01045C6.06264 8.96969 6.24297 8.87437 6.38695 8.73549C6.73695 8.39849 7.09845 8.07149 7.45495 7.73999L7.58495 7.61799C7.80295 8.04449 7.78095 8.15699 7.44595 8.42549C5.38728 10.0728 3.33012 11.7205 1.27445 13.3685C1.18695 13.4385 1.01395 13.502 1.12745 13.651C1.24095 13.8 1.34545 13.6465 1.43245 13.577C3.36112 12.0367 5.28845 10.4943 7.21445 8.94999C7.26445 8.90999 7.31695 8.87449 7.38945 8.82149V8.98349C7.37972 9.17066 7.42586 9.3565 7.52201 9.51738C7.61817 9.67826 7.75999 9.80691 7.92945 9.88699C8.09556 9.97155 8.28422 10.0012 8.46826 9.97162C8.65229 9.94205 8.82218 9.85482 8.95345 9.72249C9.34995 9.37249 9.74245 9.01549 10.1369 8.66249C10.1619 8.63999 10.1909 8.62299 10.2369 8.58799C10.2929 8.93169 10.2819 9.28298 10.2044 9.62249C10.1858 9.66795 10.1541 9.70691 10.1134 9.73449C9.78745 10.0162 9.46028 10.2967 9.13195 10.576L4.31595 14.664C4.25934 14.7013 4.20946 14.748 4.16845 14.802C4.15545 14.8266 4.14816 14.8538 4.14712 14.8816C4.14608 14.9093 4.15132 14.937 4.16245 14.9625C4.18511 14.9793 4.21122 14.9908 4.2389 14.9963C4.26657 15.0017 4.29511 15.0009 4.32245 14.994C4.34397 14.9876 4.36379 14.9765 4.38045 14.9615C4.40545 14.9415 4.43045 14.916 4.45295 14.8955L7.93445 11.9455C8.10195 11.8035 8.27095 11.6635 8.44745 11.5155C8.45646 11.5392 8.46365 11.5636 8.46895 11.5885C8.47875 11.7815 8.54513 11.9674 8.65982 12.123C8.77451 12.2786 8.93245 12.397 9.11395 12.4635C9.29313 12.5414 9.49174 12.5631 9.68351 12.5257C9.87529 12.4883 10.0512 12.3935 10.1879 12.254C10.4199 12.0425 10.6489 11.8275 10.8789 11.6135C11.0289 11.476 11.1739 11.338 11.3319 11.1895C11.3613 11.2921 11.3852 11.3963 11.4034 11.5015C11.4264 11.7464 11.3926 11.9933 11.3047 12.223C11.2168 12.4527 11.0771 12.659 10.8964 12.826C10.3169 13.45 9.72445 14.0605 9.13695 14.676C9.09845 14.716 9.04545 14.749 9.02445 14.7965C9.00345 14.844 8.98995 14.937 9.01495 14.957L9.02195 14.9615C9.07435 14.9871 9.13333 14.996 9.19095 14.987C9.20703 14.9835 9.22136 14.9745 9.23145 14.9615C9.24545 14.947 9.25895 14.929 9.27245 14.9155C9.74845 14.4235 10.2269 13.934 10.6994 13.4385C10.8902 13.2452 11.0695 13.0411 11.2364 12.827C11.4542 12.586 11.5986 12.2878 11.6527 11.9675C11.7067 11.6472 11.6681 11.3181 11.5414 11.019C11.5281 10.9523 11.5413 10.883 11.5784 10.826C11.6114 10.77 11.6466 10.7152 11.6839 10.6615C11.8025 10.5079 11.9011 10.3399 11.9774 10.1615C12.1258 9.72412 12.3527 9.31748 12.6469 8.96149C12.7822 8.78955 12.8752 8.58832 12.9186 8.37394C12.962 8.15956 12.9546 7.93798 12.8969 7.72699C12.8767 7.64674 12.8767 7.56273 12.8969 7.48249C13.1499 6.69899 13.4104 5.91799 13.6684 5.13649L14.0134 4.08949L14.1199 3.76599C14.3469 3.76599 14.5609 3.76149 14.7739 3.76599C14.9509 3.77099 15.0049 3.68799 15.0029 3.51599C14.9924 2.82599 14.9964 2.13649 14.9964 1.44699ZM6.12795 8.59999C6.01624 8.7036 5.87454 8.76911 5.72323 8.78708C5.57193 8.80505 5.41882 8.77455 5.28595 8.69999C5.15352 8.64365 5.04185 8.54758 4.96635 8.42506C4.89085 8.30254 4.85524 8.15961 4.86445 8.01599C4.88032 7.8396 4.95356 7.67328 5.07295 7.54249C5.84838 6.80365 6.68822 6.1355 7.58245 5.54599C7.63125 5.51145 7.6868 5.48759 7.74545 5.47599C7.78483 5.46919 7.82507 5.46919 7.86445 5.47599C7.91144 5.48557 7.95632 5.50352 7.99695 5.52899C8.07875 5.5797 8.14488 5.65213 8.18795 5.7382C8.23103 5.82427 8.24938 5.92061 8.24095 6.01649C8.23131 6.26626 8.1439 6.50679 7.99095 6.70449C7.44632 7.4071 6.82104 8.04329 6.12795 8.59999ZM8.72795 9.56449C8.64103 9.65387 8.52684 9.71182 8.40338 9.7292C8.27991 9.74658 8.15417 9.7224 8.04595 9.66049C7.93197 9.60134 7.83496 9.51409 7.76409 9.407C7.69322 9.29992 7.65084 9.17652 7.64095 9.04849C7.62946 8.93797 7.6437 8.8263 7.68256 8.72221C7.72142 8.61812 7.78385 8.52443 7.86495 8.44849C8.62346 7.74788 9.43783 7.11026 10.2999 6.54199C10.3259 6.52549 10.3499 6.50899 10.3784 6.49199C10.4538 6.43789 10.545 6.41028 10.6377 6.41344C10.7304 6.41661 10.8194 6.45038 10.8909 6.50949C10.9601 6.56795 11.009 6.64674 11.0307 6.73464C11.0525 6.82253 11.0459 6.91504 11.0119 6.99899C10.9027 7.36199 10.7016 7.69061 10.4279 7.95299C9.87645 8.50399 9.30295 9.03449 8.72895 9.56249L8.72795 9.56449ZM11.6834 10.185C11.3645 10.7207 10.9654 11.2043 10.4999 11.619C10.3226 11.79 10.1384 11.9535 9.94745 12.1095C9.8463 12.1934 9.72467 12.249 9.59501 12.2705C9.46534 12.292 9.33228 12.2787 9.20945 12.2319C9.08662 12.1851 8.97843 12.1065 8.89594 12.0042C8.81344 11.9019 8.75961 11.7794 8.73995 11.6495C8.73193 11.5772 8.73832 11.5041 8.75875 11.4343C8.77917 11.3645 8.81323 11.2995 8.85895 11.243C9.53942 10.5042 10.317 9.86113 11.1704 9.33149C11.1808 9.32753 11.1918 9.32533 11.2029 9.32499L11.2529 9.37499C11.1129 9.52499 10.9689 9.66799 10.8344 9.82149C10.7944 9.88105 10.7609 9.94475 10.7344 10.0115C10.8084 10.0335 10.8949 10.0915 10.9549 10.071C11.1964 9.98999 11.4339 9.89599 11.6884 9.79599L11.8939 9.71599C11.8169 9.88599 11.7619 10.041 11.6844 10.183L11.6834 10.185ZM12.3699 8.91749C12.1831 9.15455 11.9494 9.35062 11.6834 9.49349C11.6011 9.53949 11.5166 9.58249 11.4299 9.62249C11.5189 9.28199 11.6079 8.96649 11.6834 8.64749L11.6864 8.63449C11.761 8.32142 11.9018 8.02798 12.0994 7.77399C12.2209 7.61449 12.3574 7.67799 12.4969 7.71249C12.6259 7.74399 12.6584 7.83849 12.6639 7.96249C12.6842 8.30507 12.5802 8.64346 12.3709 8.91549L12.3699 8.91749ZM13.5399 4.66749C13.2509 5.54249 12.9584 6.41749 12.6764 7.29349C12.6234 7.45799 12.5514 7.48799 12.3959 7.38899L13.1374 4.09249L13.2514 3.58649L13.8514 3.72699L13.7309 4.09249L13.5399 4.66749Z" fill="black"/>

    </g>

    <g id='typescript'>

        <path d="M2.83374 5.875H15.2925V15.0837H2.83374V5.875Z" fill="white"/>
        <path d="M0.1875 7.98877V15.8013H15.8125V0.17627H0.1875V7.98877ZM12.7788 7.36377C13.153 7.45062 13.4931 7.64635 13.7563 7.92627C13.9011 8.07709 14.027 8.24499 14.1313 8.42627C14.1313 8.44627 13.4563 8.90252 13.045 9.15752C13.03 9.16752 12.97 9.10252 12.9038 9.00377C12.8287 8.87423 12.722 8.76582 12.5937 8.68866C12.4654 8.6115 12.3196 8.5681 12.17 8.56252C11.6963 8.53002 11.3913 8.77877 11.3938 9.18752C11.39 9.28928 11.4132 9.39022 11.4613 9.48002C11.565 9.69627 11.7588 9.82502 12.3663 10.0875C13.485 10.5688 13.9637 10.8863 14.2612 11.3375C14.5937 11.8375 14.6675 12.645 14.4425 13.2425C14.1925 13.8925 13.58 14.3338 12.7137 14.48C12.3181 14.5254 11.9184 14.5212 11.5238 14.4675C10.919 14.3678 10.3619 14.0775 9.93375 13.6388C9.79 13.48 9.51 13.0663 9.5275 13.0363C9.57304 13.0023 9.6211 12.9718 9.67125 12.945L10.25 12.625L10.6987 12.365L10.7925 12.5038C10.9508 12.7301 11.1521 12.9229 11.385 13.0713C11.885 13.3338 12.5675 13.2975 12.905 12.9938C13.0183 12.8825 13.089 12.7349 13.1048 12.5769C13.1205 12.4188 13.0804 12.2603 12.9913 12.1288C12.8663 11.955 12.6162 11.8088 11.9175 11.5038C11.1112 11.1563 10.7637 10.9413 10.4462 10.5988C10.2481 10.3727 10.1018 10.1061 10.0175 9.81752C9.95469 9.48783 9.94541 9.15017 9.99 8.81752C10.1562 8.03877 10.74 7.49502 11.5925 7.33377C11.9873 7.285 12.3872 7.29595 12.7788 7.36627V7.36377ZM9.11125 8.01877V8.65877H7.0825V14.4375H5.64375V8.65752H3.61V8.03252C3.60362 7.81699 3.60863 7.60127 3.625 7.38627C3.635 7.37502 4.875 7.37502 6.375 7.37502H9.10375L9.11125 8.01877Z" fill="#007ACC"/>

    </g>

                                        <!-- social -->

    <g id='gitSocial'>
    
        <path d="M35.12 11.5501C38.8766 12.8177 42.4492 14.5763 45.745 16.7801C50.4026 15.5879 55.1923 14.9898 60 15.0001C64.965 15.0001 69.755 15.6201 74.245 16.7751C77.5396 14.5734 81.1104 12.8166 84.865 11.5501C88.35 10.3651 93.315 8.44507 96.265 11.7101C98.265 13.9301 98.765 17.6501 99.12 20.4901C99.52 23.6601 99.615 27.7901 98.565 31.8901C102.58 37.0751 105 43.2601 105 50.0001C105 60.2101 99.47 69.0751 91.285 75.2151C87.3441 78.1297 82.9757 80.4168 78.335 81.9951C79.405 84.4451 80 87.1551 80 90.0001V105C80 106.326 79.4733 107.598 78.5356 108.536C77.5979 109.473 76.3261 110 75 110H45C43.674 110 42.4022 109.473 41.4645 108.536C40.5268 107.598 40 106.326 40 105V100.045C35.225 100.63 31.22 100.11 27.815 98.6651C24.255 97.1551 21.775 94.8151 19.91 92.5751C18.14 90.4551 16.21 85.6751 13.42 84.7451C12.7969 84.5376 12.2208 84.2094 11.7245 83.7792C11.2282 83.3491 10.8215 82.8254 10.5276 82.2381C9.93405 81.0519 9.83601 79.6785 10.255 78.4201C10.6741 77.1616 11.5759 76.1212 12.7621 75.5276C13.9482 74.9341 15.3216 74.836 16.58 75.2551C19.91 76.3651 22.08 78.7651 23.565 80.6951C25.965 83.7951 27.915 87.8451 31.715 89.4601C33.28 90.1251 35.575 90.5601 39.165 90.0701L40 89.9001C40.0116 87.1792 40.5781 84.4894 41.665 81.9951C37.0244 80.4168 32.656 78.1297 28.715 75.2151C20.53 69.0751 15 60.2151 15 50.0001C15 43.2701 17.415 37.0901 21.42 31.9101C20.37 27.8101 20.46 23.6701 20.86 20.4951L20.885 20.3051C21.25 17.3951 21.675 13.9701 23.715 11.7101C26.665 8.44507 31.635 10.3701 35.115 11.5551L35.12 11.5501Z" fill="#1E1E1E"/>

    </g>

    <g id='linkedSvg'>
    
        <path d="M4 6C5.10457 6 6 5.10457 6 4C6 2.89543 5.10457 2 4 2C2.89543 2 2 2.89543 2 4C2 5.10457 2.89543 6 4 6Z" fill="#1E1E1E"/>
        <path d="M4 10V20" stroke-width="4" stroke-linecap="round" stroke-linejoin="round"/>
        <path d="M10 10V20" stroke-width="4" stroke-linecap="round" stroke-linejoin="round"/>
        <path d="M10 15C10 12.24 12.24 10 15 10C17.76 10 20 12.24 20 15V20" stroke-width="4" stroke-linecap="round" stroke-linejoin="round"/>
    
    </g>

    <g id='mailSvg'>
    
        <path d="M16 3.00001V13C16 13.5675 15.5675 14 15 14H14V4.92451L8 9.23451L2 4.92451V14H1C0.4325 14 0 13.5675 0 13V3.00001C0 2.71601 0.107 2.46601 0.2865 2.28901C0.379935 2.19541 0.491264 2.12158 0.613848 2.07193C0.736432 2.02227 0.86776 1.99782 1 2.00001H1.3335L8 6.83351L14.6665 2.00001H15C15.284 2.00001 15.534 2.10701 15.7135 2.28901C15.893 2.46601 16 2.71601 16 3.00001Z" fill="#1E1E1E"/>
    
    </g>

    </svg>