<svg width="59" height="42" viewBox="0 0 59 42" fill="none" xmlns="http://www.w3.org/2000/svg">
    <g id='react'>
    <path d="M42 19.7112C42 16.9898 39.1233 14.4628 34.3288 12.7133L33.4658 12.4217V12.033C34.5205 6.68738 33.7534 2.70247 31.3562 1.24458C28.9589 -0.213309 25.411 1.14739 21.5753 4.54913L21 5.13229L20.8082 4.93791H20.6164C16.6849 1.24458 12.8493 -0.018924 10.4521 1.34177C8.05479 2.70247 7.38356 6.49299 8.34247 11.4498C8.44334 11.7652 8.5077 12.0913 8.53425 12.4217L7.47945 12.8105C2.78082 14.4628 0 16.9898 0 19.7112C0 22.4326 3.06849 25.154 7.86301 26.9035L8.53425 27.0978C8.41578 27.4419 8.35107 27.8026 8.34247 28.167C7.38356 33.0266 8.24657 36.7199 10.4521 38.0806C12.6575 39.4413 16.6849 38.1778 20.5205 34.7761L21.0959 34.2901L21.863 35.0677C24.5479 37.4003 27.2329 38.6638 29.3425 38.6638C30.0866 38.681 30.8196 38.4784 31.4521 38.0806C33.8493 36.7199 34.7123 32.735 33.6575 27.681V27.4866C33.6161 27.3267 33.5841 27.1644 33.5616 27.0007H33.8493C38.9315 25.154 42 22.5298 42 19.7112ZM39.2192 19.7112C39.2192 20.8775 37.1096 22.9186 32.9863 24.2793H32.7945C32.2918 22.7158 31.6831 21.1895 30.9726 19.7112C31.6438 18.1561 32.2192 16.601 32.6986 15.1431L33.4658 15.3375C37.3014 16.6982 39.2192 18.5449 39.2192 19.7112ZM23.6849 32.9294L22.9178 32.3463C24.0158 31.1132 25.0404 29.815 25.9863 28.4585L30.8767 27.681C30.9726 27.8754 30.9726 28.0698 31.0685 28.167C31.4102 29.9274 31.4749 31.7316 31.2603 33.5126C31.1255 34.3643 30.7218 35.1487 30.1096 35.748C29.1507 36.3312 26.5616 35.5536 23.6849 32.9294ZM22.4384 28.6529L21.0959 30.4024L19.5616 28.6529H22.4384ZM9.30137 15.046C9.78333 16.6484 10.3926 18.2086 11.1233 19.7112C10.392 21.2471 9.7828 22.8396 9.30137 24.4736L8.72603 24.2793C7.04685 23.7421 5.48454 22.8843 4.12329 21.7522C3.77081 21.5265 3.46913 21.2281 3.23785 20.8765C3.00656 20.5248 2.85085 20.1278 2.78082 19.7112C2.78082 18.5449 4.69863 16.6982 8.34247 15.4347L9.30137 15.046ZM19.5616 10.7695L21 9.11719L22.4384 10.7695H19.5616ZM30.1096 3.6744C31.1644 4.25756 31.7397 7.17334 30.8767 11.4498C30.8811 11.5025 30.8749 11.5555 30.8584 11.6056C30.8419 11.6558 30.8155 11.702 30.7808 11.7414L25.9863 10.9639C25.0404 9.60744 24.0158 8.30924 22.9178 7.07615L23.4931 6.59018C26.5616 3.86879 29.0548 3.09124 30.1096 3.6744ZM14.0959 13.9768L13.3288 15.2403L12.6575 16.5038C12.3699 15.8235 12.1781 15.1431 11.8904 14.3656L14.0959 13.9768ZM11.8904 25.0568C12.1781 24.3765 12.3699 23.6961 12.6575 22.9186L13.3288 24.1821L14.0959 25.4456L11.8904 25.0568ZM27.9041 19.7112C27.4162 20.7768 26.872 21.815 26.274 22.8214C25.6986 23.8905 25.0274 24.8624 24.4521 25.8343H17.5479C16.8767 24.7652 16.2055 23.7933 15.726 22.8214C15.1233 21.8177 14.579 20.7793 14.0959 19.7112C14.5612 18.6343 15.1061 17.5946 15.726 16.601C16.2769 15.5941 16.8853 14.6205 17.5479 13.6853C19.8453 13.491 22.1547 13.491 24.4521 13.6853C25.1233 14.6572 25.6986 15.6291 26.274 16.601C26.8939 17.5946 27.4388 18.6343 27.9041 19.7112ZM28.6712 15.2403L27.9041 13.9768L30.1096 14.4628C29.8961 15.1587 29.6399 15.8404 29.3425 16.5038L28.6712 15.2403ZM27.9041 25.4456L28.6712 24.1821L29.3425 22.8214L30.2055 25.0568L27.9041 25.4456ZM18.9863 6.97895H19.0822L16.0137 10.8667L11.2192 11.6442C11.1233 11.3526 11.1233 11.1582 11.0274 10.8667C10.2603 6.88176 10.8356 4.16036 11.7945 3.6744C12.0491 3.50492 12.3561 3.43577 12.6575 3.48001C14 3.48001 16.3014 4.45194 18.8904 6.78457L18.9863 6.97895ZM11.0274 28.6529C11.0449 28.3529 11.1096 28.0575 11.2192 27.7782L16.1096 28.4585C17.0315 29.8331 18.0574 31.1329 19.1781 32.3463L18.9863 32.5406L18.7945 32.735C17.4872 33.9625 15.9564 34.9198 14.2877 35.5536C13.9216 35.748 13.5206 35.8654 13.1086 35.8988C12.6967 35.9322 12.2823 35.8809 11.8904 35.748C10.8356 35.1648 10.2603 32.5406 11.0274 28.6529Z" fill="#7572D5"/>
    <path d="M21.0001 15.4347C20.1618 15.4154 19.3369 15.6497 18.6305 16.1077C17.9242 16.5657 17.3685 17.2267 17.0344 18.0062C16.7003 18.7857 16.603 19.6485 16.7548 20.4843C16.9066 21.3202 17.3007 22.0912 17.8867 22.6991C18.4728 23.3069 19.2243 23.724 20.0452 23.897C20.8662 24.0701 21.7194 23.9912 22.4959 23.6706C23.2725 23.35 23.9372 22.8021 24.4052 22.0969C24.8731 21.3917 25.1232 20.5611 25.1234 19.7112C25.1237 18.5937 24.6924 17.5204 23.9217 16.7211C23.1511 15.9219 22.1024 15.4601 21.0001 15.4347Z" fill="#7572D5"/>

    </g>

    <g id='logoSvg'>

        <path d="M2.41669 22L14.0233 40L29.5 27L2.41669 22Z" stroke="#00C1EC" stroke-width="4" stroke-linecap="round" stroke-linejoin="round"/>
        <path d="M56.5833 22L44.9768 40L29.5 27L56.5833 22Z" stroke="#00C1EC" stroke-width="4" stroke-linecap="round" stroke-linejoin="round"/>
        <path d="M14.6042 40H44.3959L29.5 27L14.6042 40Z" stroke="#00C1EC" stroke-width="4" stroke-linecap="round" stroke-linejoin="round"/>
        <path d="M13.25 24L29.5 2L45.75 24" stroke="#00C1EC" stroke-width="4" stroke-linejoin="round"/>


    </g>

    <g id='docker'>
	
		<defs>
			<clipPath id="clip1_2452">
				<rect id="icon" rx="0.000000" width="119.531250" height="119.531250" transform="translate(0.234375 0.234375)" fill="white" fill-opacity="0"/>
			</clipPath>
		</defs>
		<rect id="icon" rx="0.000000" width="119.531250" height="119.531250" transform="translate(0.234375 0.234375)" fill="#FFFFFF" fill-opacity="0"/>
		<g clip-path="url(#clip1_2452)">
			<path id="Vector" d="M117.52 49.74C114.82 47.87 108.62 47.16 103.78 48.1C103.22 43.41 100.63 39.31 96.13 35.68L93.54 33.8L91.73 36.5C89.48 40.02 88.36 44.94 88.69 49.62C88.81 51.26 89.37 54.19 91.06 56.77C89.48 57.71 86.22 58.88 81.94 58.88L0.54 58.88L0.31 59.82C-0.48 64.51 -0.48 79.15 8.76 90.4C15.74 98.96 26.09 103.29 39.72 103.29C69.22 103.29 91.06 89.11 101.31 63.45C105.36 63.57 114.03 63.45 118.42 54.66C118.53 54.43 118.76 53.96 119.54 52.2L120 51.26L117.52 49.74ZM65.61 16.7L53.23 16.7L53.23 28.41L65.61 28.41L65.61 16.7ZM65.61 30.76L53.23 30.76L53.23 42.48L65.61 42.48L65.61 30.76L65.61 30.76ZM50.98 30.76L38.59 30.76L38.59 42.48L50.98 42.48L50.98 30.76L50.98 30.76ZM36.34 30.76L23.96 30.76L23.96 42.48L36.34 42.48L36.34 30.76L36.34 30.76ZM21.7 44.82L9.32 44.82L9.32 56.54L21.7 56.54L21.7 44.82L21.7 44.82ZM36.34 44.82L23.96 44.82L23.96 56.54L36.34 56.54L36.34 44.82L36.34 44.82ZM50.98 44.82L38.59 44.82L38.59 56.54L50.98 56.54L50.98 44.82L50.98 44.82ZM65.61 44.82L53.23 44.82L53.23 56.54L65.61 56.54L65.61 44.82L65.61 44.82ZM80.25 44.82L67.87 44.82L67.87 56.54L80.25 56.54L80.25 44.82L80.25 44.82Z" fill="#2396ED" fill-opacity="1.000000" fill-rule="nonzero"/>
		</g>

	</g>

    </svg>